# Blender v3.0.1 OBJ File: ''
# www.blender.org
mtllib dead_tree.mtl
o Dead_Tree_Mesh.007
v -0.120553 0.001529 0.779542
v 1.205669 0.001529 0.022293
v -0.877802 0.001529 -0.546680
v 0.448420 0.001529 -1.303929
v -3.147520 23.975969 -0.730270
v 0.841162 23.923498 1.282342
v -1.158074 24.603376 -0.599364
v 0.333985 24.574785 0.200385
v -0.120553 1.973186 0.779542
v 1.205669 1.973186 0.022293
v 0.448420 1.973186 -1.303929
v -0.877802 1.973186 -0.546680
v -0.120553 3.944844 0.779542
v 1.205669 3.944844 0.022293
v 0.448420 3.944844 -1.303929
v -0.877802 3.944844 -0.546680
v -0.726046 5.916502 1.125267
v 0.600176 5.916502 0.368018
v -0.157073 5.916502 -0.958204
v -1.483295 5.916502 -0.200954
v -0.726046 7.888159 1.125267
v 0.600176 7.888159 0.368018
v -0.157073 7.888159 -0.958204
v -1.483295 7.888159 -0.200954
v -0.726046 9.859816 1.125267
v 0.600176 9.859816 0.368018
v -0.680539 12.464001 -0.659314
v -1.483295 12.509382 -0.200954
v -2.087965 14.107037 0.923123
v -0.099291 13.894491 0.923123
v -0.099291 13.894491 -1.076877
v -2.087965 14.107037 -1.076877
v -1.813560 16.674498 0.923123
v 0.175114 16.461952 0.923123
v 0.175114 16.461952 -1.076877
v -1.813560 16.674498 -1.076877
v -1.539154 19.037722 0.615623
v 0.449520 18.831278 0.565063
v 0.698474 19.367527 -1.362712
v -1.300762 19.421198 -1.349567
v -1.229418 21.174417 0.673078
v 0.769819 21.127579 0.643759
v 0.769819 22.188719 -1.051523
v -1.229418 22.235558 -1.022204
v 10.235934 23.318523 0.885724
v 11.217459 23.249638 1.342159
v 11.134329 24.397976 -0.585616
v 9.658212 24.208611 -0.809559
v 4.291340 21.910137 -0.932371
v 4.456616 20.835922 0.768504
v 4.005956 19.917419 0.685397
v 4.531886 20.431759 -1.233006
v -3.791952 22.956158 8.784448
v -3.969715 23.321718 8.582272
v -4.232015 23.266302 8.712701
v -4.054250 22.900742 8.914876
v -5.683043 20.353722 4.620829
v -6.367917 20.542694 5.394104
v -6.352842 19.099707 5.421510
v -5.431213 19.186882 5.238023
v -5.644166 20.399069 4.717682
v -4.624103 18.325575 4.001032
v -5.282028 17.713459 4.389263
v -5.464833 17.603981 3.158797
v -5.537313 18.526073 3.191078
v -5.106763 21.331894 6.125181
v -5.889746 21.376308 6.698918
v -5.338910 20.242256 7.324763
v -4.535375 20.345926 6.867120
v -3.924520 17.249939 0.265057
v -3.902142 17.499262 2.959040
v -4.524250 16.545305 2.438354
v -4.292263 16.712059 1.123943
v 0.539450 18.935928 -8.206150
v 0.338659 18.813768 -8.426558
v 0.245023 18.803276 -8.599640
v -0.035316 19.452797 -8.728063
v -2.798154 15.447841 -3.839388
v -2.162997 14.449325 -4.799532
v -1.467708 14.236379 -5.066723
v -0.858076 15.150031 -5.325366
vt 0.770809 0.019391
vt 0.816752 0.018007
vt 0.818136 0.063950
vt 0.772193 0.065334
vt 0.456606 0.199011
vt 0.331836 0.150500
vt 0.355805 0.136611
vt 0.402591 0.154479
vt 0.061025 0.906937
vt 0.019759 0.890265
vt 0.044546 0.828915
vt 0.085812 0.845588
vt 0.069332 0.767566
vt 0.110599 0.784239
vt 0.112959 0.713829
vt 0.154226 0.730501
vt 0.137746 0.652479
vt 0.179012 0.669152
vt 0.162533 0.591130
vt 0.203799 0.607802
vt 0.235019 0.474382
vt 0.299570 0.492769
vt 0.258758 0.391044
vt 0.323309 0.409431
vt 0.280006 0.313871
vt 0.344480 0.332448
vt 0.298907 0.238394
vt 0.361704 0.262070
vt 0.761303 0.696459
vt 0.720527 0.681618
vt 0.742591 0.620998
vt 0.783366 0.635839
vt 0.764655 0.560379
vt 0.805430 0.575220
vt 0.797348 0.503628
vt 0.838123 0.518469
vt 0.819412 0.443008
vt 0.860187 0.457849
vt 0.879807 0.305667
vt 0.882251 0.397230
vt 0.882976 0.257013
vt 0.944467 0.279394
vt 0.911708 0.178075
vt 0.973198 0.200456
vt 0.935434 0.085543
vt 0.988703 0.123603
vt 0.000500 0.041022
vt 0.017523 0.006336
vt 0.061073 0.030785
vt 0.031907 0.051218
vt 0.115356 0.984675
vt 0.055702 0.999500
vt 0.029678 0.920881
vt 0.067177 0.910866
vt 0.334882 0.898970
vt 0.292284 0.894493
vt 0.298940 0.831163
vt 0.341538 0.835640
vt 0.305596 0.767834
vt 0.348194 0.772311
vt 0.292804 0.702460
vt 0.335402 0.706937
vt 0.299460 0.639130
vt 0.342058 0.643608
vt 0.315061 0.490697
vt 0.340693 0.494864
vt 0.720200 0.022232
vt 0.712056 0.023521
vt 0.706617 0.021907
vt 0.709937 0.000500
vt 0.983428 0.928217
vt 0.936550 0.970276
vt 0.882249 0.909756
vt 0.929127 0.867696
vt 0.828777 0.839880
vt 0.872159 0.794225
vt 0.764419 0.778909
vt 0.807641 0.733110
vt 0.710512 0.727347
vt 0.742620 0.693033
vt 0.403128 0.820214
vt 0.362312 0.805358
vt 0.384398 0.744678
vt 0.425213 0.759534
vt 0.406483 0.683999
vt 0.447299 0.698855
vt 0.417929 0.619447
vt 0.458744 0.634302
vt 0.440014 0.558767
vt 0.480830 0.573623
vt 0.462100 0.498088
vt 0.532595 0.431400
vt 0.515896 0.369640
vt 0.577448 0.392043
vt 0.189430 0.995278
vt 0.181999 0.988945
vt 0.189378 0.983841
vt 0.196809 0.990174
vt 0.784628 0.974057
vt 0.724124 0.974057
vt 0.733426 0.902565
vt 0.792877 0.890964
vt 0.731688 0.837925
vt 0.782974 0.805824
vt 0.789252 0.801268
vt 0.683274 0.787124
vt 0.180524 0.201120
vt 0.182999 0.235365
vt 0.592070 0.571127
vt 0.570986 0.786150
vt 0.508204 0.788857
vt 0.529593 0.553999
vt 0.947660 0.482545
vt 0.974332 0.444011
vt 0.928028 0.682092
vt 0.888363 0.656570
vt 0.199171 0.169773
vt 0.312247 0.205376
vt 0.533512 0.438176
vt 0.596294 0.446284
vt 0.606896 0.535278
vt 0.615899 0.432340
vt 0.629083 0.435886
vt 0.646919 0.540220
vt 0.266654 0.938417
vt 0.245959 0.913551
vt 0.368446 0.009486
vt 0.378762 0.000500
vt 0.419568 0.081224
vt 0.387604 0.109115
vt 0.981118 0.169735
vt 0.988993 0.175872
vt 0.988593 0.285841
vt 0.963387 0.269251
vt 0.181406 0.718772
vt 0.197532 0.654096
vt 0.254977 0.714512
vt 0.232532 0.801450
vt 0.829142 0.966970
vt 0.824303 0.947031
vt 0.496576 0.277627
vt 0.538896 0.287218
vt 0.406029 0.447529
vt 0.398665 0.410025
vt 0.595739 0.592851
vt 0.596872 0.589545
vt 0.637182 0.604832
vt 0.629348 0.653466
vt 0.652552 0.658235
vt 0.799988 0.643958
vt 0.806643 0.578232
vt 0.847754 0.582121
vt 0.808142 0.648841
vt 0.433380 0.165597
vt 0.450387 0.121495
vt 0.495598 0.208235
vt 0.486262 0.236975
vt 0.283540 0.822138
vt 0.292637 0.900077
vt 0.276724 0.869549
vt 0.247477 0.840968
vt 0.274686 0.872367
vt 0.765726 0.000500
vt 0.765782 0.070328
vt 0.736643 0.061564
vt 0.735795 0.001369
vt 0.431517 0.393390
vt 0.444294 0.420707
vt 0.449620 0.219823
vt 0.571354 0.280286
vt 0.764133 0.201853
vt 0.766405 0.170868
vt 0.467354 0.617344
vt 0.495059 0.607410
vt 0.490946 0.755356
vt 0.467668 0.759890
vt 0.677486 0.381723
vt 0.695850 0.423208
vt 0.858345 0.536710
vt 0.882196 0.403162
vt 0.943181 0.449872
vt 0.920857 0.536710
vt 0.872801 0.313227
vt 0.861573 0.331778
vt 0.589903 0.598423
vt 0.591970 0.595739
vt 0.665228 0.756754
vt 0.642359 0.769416
vt 0.082199 0.927018
vt 0.116598 0.786325
vt 0.144073 0.782481
vt 0.145902 0.957093
vn 0.0000 -1.0000 0.0000
vn -0.2854 0.7676 0.5739
vn -0.2874 0.7551 0.5893
vn -0.2869 0.7585 0.5852
vn -0.2830 0.7815 0.5560
vn 0.4958 0.0000 0.8684
vn 0.4958 -0.0155 0.8683
vn 0.4365 -0.0072 0.8997
vn 0.0564 0.0183 0.9982
vn 0.0022 0.0209 0.9998
vn 0.0079 0.0742 0.9972
vn 0.0128 0.0687 0.9976
vn 0.0249 0.0476 0.9986
vn 0.0284 0.0471 0.9985
vn 0.0132 -0.1321 0.9912
vn -0.1465 -0.0199 0.9890
vn -0.2767 -0.0046 0.9610
vn -0.4447 0.1388 0.8849
vn 0.8684 0.0000 -0.4958
vn 0.8559 0.1691 -0.4887
vn 0.8665 0.0654 -0.4948
vn 0.8465 0.0521 -0.5298
vn 0.2450 -0.2597 -0.9341
vn 0.6816 -0.0015 -0.7318
vn 0.9835 -0.0443 -0.1755
vn 0.9997 0.0263 0.0000
vn 0.9897 -0.1429 0.0000
vn 0.9918 -0.1269 0.0172
vn 0.9892 -0.1365 0.0529
vn 0.9900 -0.0995 0.1002
vn -0.1799 0.8434 0.5063
vn -0.1850 0.8408 0.5088
vn -0.1826 0.8420 0.5076
vn -0.1749 0.8460 0.5038
vn 0.9913 0.1177 -0.0595
vn 0.9871 0.1357 0.0850
vn 0.9738 0.0966 -0.2059
vn 0.9181 0.0658 -0.3908
vn -0.4958 -0.0000 -0.8684
vn 0.7829 0.0890 -0.6158
vn 0.7438 -0.5575 -0.3686
vn 0.7790 0.1048 -0.6182
vn 0.7511 0.1997 -0.6293
vn 0.0000 -0.0000 -1.0000
vn -0.0051 -0.0473 -0.9989
vn -0.0051 -0.0495 -0.9988
vn -0.0067 0.0046 -1.0000
vn -0.0079 0.0139 -0.9999
vn -0.0095 0.1442 -0.9895
vn 0.0725 0.2051 -0.9761
vn 0.2608 0.3748 -0.8896
vn 0.4214 0.4805 -0.7691
vn -0.8684 -0.0000 0.4958
vn -0.8559 -0.1691 0.4887
vn -0.9016 -0.0422 0.4305
vn -0.9582 -0.2846 0.0293
vn -0.9413 -0.3363 -0.0284
vn -0.9353 -0.3540 0.0000
vn 0.2695 0.5631 0.7812
vn -0.9893 0.1411 -0.0366
vn -0.9933 0.1153 0.0000
vn -0.9865 0.1490 -0.0684
vn -0.9899 0.1275 -0.0618
vn -0.9822 -0.1278 -0.1378
vn -0.7778 -0.3397 -0.5288
vn -0.2638 -0.1305 -0.9557
vn 0.0094 0.1755 -0.9844
vn -0.2880 0.6366 0.7154
vn -0.0635 -0.0590 0.9962
vn 0.4896 -0.7397 -0.4617
vn 0.4255 -0.8965 -0.1237
vn 0.1630 -0.1113 -0.9803
vn -0.0588 0.1897 -0.9801
vn -0.3448 0.7777 0.5256
vn -0.3447 0.7776 0.5258
vn -0.3450 0.7779 0.5252
vn -0.3452 0.7780 0.5249
vn 0.0490 0.8466 0.5299
vn -0.0244 -0.0308 0.9992
vn -0.0393 -0.0709 0.9967
vn 0.2917 -0.9306 -0.2212
vn 0.2688 -0.9462 -0.1800
vn 0.0422 0.1085 -0.9932
vn -0.0212 0.1959 -0.9804
vn 0.8527 0.1357 -0.5045
vn 0.8581 0.1220 -0.4988
vn -0.3894 0.8096 -0.4392
vn -0.3219 0.8031 -0.5014
vn -0.7647 -0.0157 0.6442
vn -0.7647 -0.0156 0.6442
vn -0.7646 -0.0158 0.6443
vn -0.7646 -0.0159 0.6443
vn 0.4511 -0.6084 0.6530
vn 0.4527 -0.6086 0.6517
vn 0.4521 -0.6085 0.6522
vn 0.4506 -0.6083 0.6534
vn 0.2630 0.9648 0.0000
vn 0.2881 0.9533 -0.0906
vn -0.6617 0.0707 -0.7464
vn -0.5420 -0.5881 -0.6003
vn -0.7074 -0.7068 0.0000
vn -0.8270 -0.5207 -0.2120
vn 0.4892 -0.0523 0.8706
vn 0.4028 -0.6267 0.6671
vn 0.9276 0.0026 -0.3736
vn 0.9277 0.0027 -0.3734
vn 0.9289 0.0042 -0.3704
vn 0.8761 0.3592 0.3216
vn 0.6813 -0.3124 0.6620
vn 0.2149 -0.4711 0.8555
vn -0.7164 -0.6775 0.1667
vn -0.9404 -0.0163 -0.3397
vn -0.9424 -0.0626 -0.3285
vn -0.6062 0.4595 -0.6492
vn 0.6311 0.5085 -0.5857
vn -0.1595 0.9171 -0.3654
vn -0.2629 0.8474 -0.4612
vn -0.2765 0.8526 -0.4434
vn -0.8825 -0.0003 0.4703
vn -0.8790 -0.1842 0.4398
vn 0.1708 -0.8823 0.4387
vn 0.3434 -0.8441 0.4117
vn 0.9323 0.0085 -0.3616
vn 0.8438 0.0911 -0.5288
vn 0.4692 0.8208 -0.3258
vn 0.5215 0.8492 -0.0829
vn 0.6688 -0.2827 0.6876
vn 0.5008 -0.6429 0.5795
vn -0.4297 -0.8915 0.1432
vn -0.9403 -0.2746 -0.2008
vn -0.8842 -0.0533 -0.4641
vn -0.8822 -0.1227 -0.4546
vn 0.8392 -0.4359 -0.3252
vn 0.7492 -0.5868 -0.3072
vn -0.2482 -0.9051 -0.3451
vn -0.3794 -0.8799 -0.2861
vn -0.8563 -0.5157 -0.0302
vn -0.9325 -0.3608 -0.0144
vn 0.3093 0.9256 0.2183
vn 0.0967 0.9050 0.4144
vn -0.5237 -0.3771 -0.7639
vn -0.8538 -0.0443 -0.5188
vn 0.7413 -0.5619 -0.3670
vn -0.4365 -0.4423 -0.7834
vn 0.7443 -0.5561 -0.3698
vn 0.6953 -0.5829 -0.4204
vn -0.1286 0.6302 0.7657
vn 0.5900 0.4284 0.6844
usemtl Wood.007
s 1
f 1/1/1 3/2/1 4/3/1
f 4/3/1 2/4/1 1/1/1
f 5/5/2 6/6/3 8/7/4
f 8/7/4 7/8/5 5/5/2
f 1/9/6 2/10/6 10/11/6
f 10/11/6 9/12/6 1/9/6
f 9/12/6 10/11/6 14/13/6
f 14/13/6 13/14/6 9/12/6
f 13/14/6 14/13/6 18/15/6
f 18/15/6 17/16/6 13/14/6
f 17/16/6 18/15/6 22/17/6
f 22/17/6 21/18/6 17/16/6
f 21/18/6 22/17/6 26/19/7
f 26/19/7 25/20/8 21/18/6
f 25/20/8 26/19/7 30/21/9
f 30/21/9 29/22/10 25/20/8
f 29/22/10 30/21/9 34/23/11
f 34/23/11 33/24/12 29/22/10
f 33/24/12 34/23/11 38/25/13
f 38/25/13 37/26/14 33/24/12
f 37/26/14 38/25/13 42/27/15
f 42/27/15 41/28/16 37/26/14
f 41/28/16 42/27/15 6/6/17
f 6/6/17 5/5/18 41/28/16
f 2/29/19 4/30/19 11/31/19
f 11/31/19 10/32/19 2/29/19
f 10/32/19 11/31/19 15/33/20
f 15/33/20 14/34/20 10/32/19
f 14/34/20 15/33/20 19/35/20
f 19/35/20 18/36/20 14/34/20
f 18/36/20 19/35/20 23/37/21
f 23/37/21 22/38/22 18/36/20
f 22/38/22 23/37/21 27/39/23
f 27/39/23 26/40/24 22/38/22
f 26/40/24 27/39/23 31/41/25
f 31/41/25 30/42/26 26/40/24
f 30/42/26 31/41/25 35/43/27
f 35/43/27 34/44/28 30/42/26
f 34/44/28 35/43/27 39/45/29
f 39/45/29 38/46/30 34/44/28
f 46/47/31 47/48/32 48/49/33
f 48/49/33 45/50/34 46/47/31
f 42/51/35 43/52/36 8/53/37
f 8/53/37 6/54/38 42/51/35
f 4/55/39 3/56/39 12/57/39
f 12/57/39 11/58/39 4/55/39
f 11/58/39 12/57/39 16/59/39
f 16/59/39 15/60/39 11/58/39
f 15/60/39 16/59/39 20/61/39
f 20/61/39 19/62/39 15/60/39
f 19/62/39 20/61/39 24/63/39
f 24/63/39 23/64/39 19/62/39
f 23/64/39 24/63/39 28/65/39
f 28/65/39 27/66/39 23/64/39
f 74/67/40 75/68/41 76/69/42
f 76/69/42 77/70/43 74/67/40
f 31/71/44 32/72/44 36/73/45
f 36/73/45 35/74/46 31/71/44
f 35/74/46 36/73/45 40/75/47
f 40/75/47 39/76/48 35/74/46
f 39/76/48 40/75/47 44/77/49
f 44/77/49 43/78/50 39/76/48
f 43/78/50 44/77/49 7/79/51
f 7/79/51 8/80/52 43/78/50
f 3/81/53 1/82/53 9/83/53
f 9/83/53 12/84/53 3/81/53
f 12/84/53 9/83/53 13/85/54
f 13/85/54 16/86/54 12/84/53
f 16/86/54 13/85/54 17/87/54
f 17/87/54 20/88/54 16/86/54
f 20/88/54 17/87/54 21/89/53
f 21/89/53 24/90/53 20/88/54
f 24/90/53 21/89/53 25/91/55
f 25/91/55 28/92/56 24/90/53
f 28/92/56 25/91/55 29/93/57
f 29/93/57 32/94/58 28/92/56
f 56/95/59 53/96/59 54/97/59
f 54/97/59 55/98/59 56/95/59
f 36/99/60 33/100/61 37/101/62
f 37/101/62 40/102/63 36/99/60
f 40/102/63 37/101/62 41/103/64
f 41/103/64 44/104/65 40/102/63
f 44/77/65 41/105/64 5/106/66
f 5/106/66 7/79/67 44/77/65
f 46/47/68 45/50/68 50/107/68
f 50/107/69 51/108/69 46/47/69
f 52/109/70 47/110/70 46/111/70
f 46/111/71 51/112/71 52/109/71
f 48/113/72 47/114/72 52/115/72
f 52/115/73 49/116/73 48/113/73
f 50/107/74 45/50/75 48/49/76
f 48/49/76 49/117/77 50/107/74
f 49/117/78 43/118/78 42/27/78
f 42/27/78 50/107/78 49/117/78
f 42/27/79 38/25/79 51/108/79
f 51/108/80 50/107/80 42/27/80
f 51/112/81 38/119/81 39/120/81
f 39/120/82 52/109/82 51/112/82
f 39/76/83 43/78/83 49/116/83
f 49/116/84 52/115/84 39/76/84
f 66/121/85 54/122/85 53/123/85
f 53/123/86 69/124/86 66/121/86
f 67/125/87 55/98/87 54/97/87
f 54/97/88 66/126/88 67/125/88
f 56/127/89 55/128/90 67/129/91
f 67/129/91 68/130/92 56/127/89
f 53/131/93 56/132/94 68/133/95
f 68/133/95 69/134/96 53/131/93
f 33/135/97 36/136/97 70/137/97
f 70/137/98 71/138/98 33/135/98
f 36/73/99 32/72/99 73/139/99
f 73/139/100 70/140/100 36/73/100
f 32/94/101 29/93/101 72/141/101
f 72/141/102 73/142/102 32/94/102
f 72/143/103 29/22/103 33/24/103
f 33/24/104 71/144/104 72/143/104
f 57/145/105 61/146/106 60/147/107
f 62/148/108 57/145/108 60/147/108
f 62/148/109 60/147/109 63/149/109
f 63/150/110 60/151/110 59/152/110
f 59/152/111 64/153/111 63/150/111
f 59/154/112 58/155/112 65/156/112
f 65/156/113 64/157/113 59/154/113
f 65/158/114 58/159/114 57/160/114
f 57/160/115 62/161/115 65/158/115
f 61/162/116 57/160/116 58/159/116
f 66/126/117 61/162/117 58/159/117
f 66/126/118 58/159/118 67/125/118
f 58/155/119 59/154/119 68/130/119
f 68/130/120 67/129/120 58/155/120
f 68/163/121 59/164/121 60/165/121
f 60/165/122 69/166/122 68/163/122
f 60/147/107 61/146/106 66/121/123
f 66/121/124 69/124/124 60/147/124
f 65/158/125 62/161/125 71/138/125
f 71/138/126 70/137/126 65/158/126
f 71/144/127 62/167/127 63/168/127
f 63/168/128 72/143/128 71/144/128
f 63/169/129 64/157/129 73/142/129
f 73/142/130 72/141/130 63/169/130
f 64/157/131 65/156/131 70/170/131
f 70/170/132 73/142/132 64/157/132
f 31/41/133 27/39/133 80/171/133
f 80/171/134 81/172/134 31/41/134
f 27/173/135 28/174/135 79/175/135
f 79/175/136 80/176/136 27/173/136
f 32/94/137 78/177/137 79/178/137
f 79/178/138 28/92/138 32/94/138
f 31/179/139 81/180/139 78/181/139
f 78/181/140 32/182/140 31/179/140
f 77/183/141 76/184/141 79/178/141
f 79/178/142 78/177/142 77/183/142
f 76/185/143 75/186/143 80/187/143
f 80/187/144 79/188/144 76/185/144
f 75/68/145 74/67/145 81/172/145
f 81/172/146 80/171/146 75/68/146
f 81/189/147 74/190/147 77/191/147
f 77/191/148 78/192/148 81/189/148
