# Blender v3.0.1 OBJ File: ''
# www.blender.org
mtllib small_rock.mtl
o Small_Rock_Mesh.012
v 0.890607 3.862078 2.630791
v -1.292991 1.440340 -3.756166
v -6.897313 4.303804 -5.157129
v -9.325272 2.673922 0.940111
v -6.099408 3.131319 3.347539
v 1.688512 3.139864 6.573400
v 9.476432 2.608065 8.728031
v 11.904389 2.973116 2.630795
v 3.568668 3.927462 -1.257711
v -1.292983 1.419649 -3.756166
v 0.890607 3.696383 2.630791
v -1.815915 -2.095476 -7.210203
v -10.123176 1.516401 -8.382992
v -14.685234 -2.095476 -2.749701
v -10.123174 1.272017 3.573775
v -0.100917 -1.955423 6.149373
v 11.904388 -2.095476 9.013716
v 13.987817 0.413908 3.974107
v 7.597968 1.989607 -3.287362
v -1.815904 -2.095476 -7.210202
v 0.890607 -3.496767 -5.347236
v -1.815915 -2.584726 -7.202516
v -10.117741 -2.584726 -8.377556
v -14.677547 -2.584726 -2.749701
v -10.117739 0.782766 3.568340
v -0.100917 -2.444674 6.141687
v 11.898953 -2.584726 9.008282
v 13.980130 -0.075342 3.974107
v 9.083031 -2.584726 -2.410878
v -1.815904 -2.584726 -7.202514
v 0.890607 -3.986017 -5.347236
vt 0.590533 0.371661
vt 0.465798 0.284726
vt 0.470259 0.154680
vt 0.617354 0.139965
vt 0.649452 0.224760
vt 0.670946 0.413416
vt 0.669246 0.595421
vt 0.522152 0.610136
vt 0.489710 0.405504
vt 0.465798 0.284726
vt 0.814152 0.001000
vt 0.879424 0.140513
vt 0.811559 0.003685
vt 0.250066 0.648154
vt 0.252751 0.650747
vt 0.189368 0.789536
vt 0.065500 0.697340
vt 0.145144 0.709119
vt 0.063786 0.896240
vt 0.001000 0.823577
vt 0.420440 0.064804
vt 0.570739 0.001000
vt 0.679333 0.139040
vt 0.681165 0.194396
vt 0.723046 0.103760
vt 0.795744 0.329512
vt 0.680973 0.369819
vt 0.798899 0.599931
vt 0.692952 0.545241
vt 0.660357 0.649765
vt 0.538302 0.663587
vt 0.420747 0.480147
vt 0.394256 0.251958
vt 0.880388 0.251515
vt 0.828276 0.245070
vt 0.244469 0.892568
vt 0.192614 0.900828
vt 0.156164 0.709119
vt 0.156164 0.896117
vt 0.156164 0.998827
vt 0.145144 0.999000
vt 0.798899 0.001000
vt 0.809919 0.001173
vt 0.734067 0.103883
vt 0.806765 0.329512
vt 0.809919 0.599809
vt 0.486273 0.665227
vt 0.497293 0.665350
vt 0.440769 0.778744
vt 0.429749 0.778744
vt 0.497293 0.922566
vt 0.394256 0.942309
vt 0.680973 0.601571
vt 0.789304 0.601598
vt 0.713441 0.835080
vt 0.702960 0.831675
vt 0.872608 0.259322
vt 0.820621 0.252997
vt 0.252397 0.900224
vt 0.200661 0.908359
vt 0.187728 0.648154
vt 0.324358 0.351673
vt 0.265848 0.001000
vt 0.392616 0.103710
vt 0.123535 0.103710
vt 0.065570 0.329339
vt 0.001000 0.599636
vt 0.114395 0.646514
vt 0.258217 0.536207
vt 0.762299 0.786854
vn 0.4929 0.7442 -0.4507
vn -0.1459 0.9687 0.2008
vn -0.1083 0.9932 -0.0436
vn -0.0821 0.9772 0.1956
vn 0.0184 0.9841 0.1766
vn 0.0801 0.9926 0.0913
vn 0.0802 0.9942 0.0720
vn -0.3518 0.9081 -0.2270
vn -0.9462 0.0000 0.3235
vn 0.9462 0.0000 -0.3235
vn 0.3919 0.5482 -0.7389
vn -0.6417 0.7659 -0.0402
vn -0.6154 0.7578 0.2169
vn -0.2707 0.1995 0.9418
vn -0.2466 -0.0297 0.9687
vn 0.7196 0.5438 0.4318
vn 0.4860 0.7332 -0.4755
vn -0.0080 0.7065 -0.7077
vn -0.7307 -0.4812 0.4842
vn 0.7321 0.4797 -0.4837
vn 0.1394 -0.0027 -0.9902
vn -0.7766 -0.0030 -0.6300
vn -0.8073 -0.0141 0.5900
vn -0.2532 -0.0144 0.9673
vn -0.2323 -0.0118 0.9726
vn 0.9266 -0.0145 0.3758
vn 0.7620 0.1119 -0.6379
vn 0.4011 -0.0422 -0.9151
vn -0.5639 0.0065 0.8258
vn 0.5639 -0.0065 -0.8258
vn 0.0971 -0.7209 -0.6862
vn -0.1032 -0.9911 -0.0836
vn -0.0009 -0.8822 0.4708
vn -0.3279 -0.9396 0.0978
vn -0.0424 -0.9907 0.1292
vn 0.4365 -0.8642 -0.2503
vn 0.0391 -0.9398 0.3394
vn 0.3691 -0.3986 -0.8396
usemtl Stones.002
s 1
f 1/1/1 2/2/1 3/3/1
f 1/1/2 3/3/2 4/4/2
f 1/1/3 4/4/3 5/5/3
f 1/1/4 5/5/4 6/6/4
f 1/1/5 6/6/5 7/7/5
f 1/1/6 7/7/6 8/8/6
f 1/1/7 8/8/7 9/9/7
f 1/1/8 9/9/8 10/10/8
f 1/11/9 10/12/9 11/13/9
f 1/14/10 11/15/10 2/16/10
f 2/17/11 12/18/11 13/19/11 3/20/11
f 3/3/12 13/21/12 14/22/12 4/4/12
f 4/4/13 14/22/13 15/23/13 5/5/13
f 5/24/14 15/25/14 16/26/14 6/27/14
f 6/27/15 16/26/15 17/28/15 7/29/15
f 7/7/16 17/30/16 18/31/16 8/8/16
f 8/8/17 18/31/17 19/32/17 9/9/17
f 9/9/18 19/32/18 20/33/18 10/10/18
f 10/12/19 20/34/19 21/35/19 11/13/19
f 11/15/20 21/36/20 12/37/20 2/16/20
f 12/18/21 22/38/21 23/39/21 13/19/21
f 23/39/22 24/40/22 14/41/22 13/19/22
f 14/42/23 24/43/23 25/44/23 15/25/23
f 15/25/24 25/44/24 26/45/24 16/26/24
f 16/26/25 26/45/25 27/46/25 17/28/25
f 17/47/26 27/48/26 28/49/26 18/50/26
f 18/50/27 28/49/27 29/51/27 19/52/27
f 19/53/28 29/54/28 30/55/28 20/56/28
f 20/34/29 30/57/29 31/58/29 21/35/29
f 21/36/30 31/59/30 22/60/30 12/37/30
f 31/61/31 23/39/31 22/38/31
f 31/62/32 24/63/32 23/64/32
f 31/62/33 25/65/33 24/63/33
f 31/62/34 26/66/34 25/65/34
f 31/62/35 27/67/35 26/66/35
f 31/62/36 28/68/36 27/67/36
f 31/62/37 29/69/37 28/68/37
f 31/70/38 30/55/38 29/54/38
