# Blender v3.0.1 OBJ File: ''
# www.blender.org
mtllib little_bush.mtl
o Bush_Mesh.009
v -16.769478 26.798653 6.368661
v -7.757148 25.825706 6.368661
v -21.275642 25.825706 -1.436244
v -2.278439 13.913769 6.368661
v -10.306973 17.390724 -4.824724
v -24.014996 13.913770 -6.180946
v -2.481480 4.426537 6.368661
v -6.784606 1.168411 -1.436244
v -15.002669 1.168412 -6.180946
v -23.913477 4.426538 -6.005108
v -21.275642 25.825706 14.173567
v -29.694487 17.390726 6.368661
v -24.014996 13.913770 18.918268
v -28.521160 1.168412 1.623960
v -28.521160 1.168412 11.113362
v -23.913477 4.426538 18.742432
v -10.306973 17.390724 17.562046
v -15.002669 1.168412 18.918268
v -6.784606 1.168411 14.173567
v -13.617733 0.240022 6.368661
v -4.321893 32.264542 -13.119028
v 8.675004 27.841354 -13.119028
v -4.321893 27.841354 -26.115927
v 14.058491 12.758156 -13.119028
v 8.675003 12.758156 -26.115927
v -4.321894 12.758156 -31.499418
v -17.318794 27.841354 -13.119028
v -17.318794 12.758157 -26.115927
v -22.702284 12.758157 -13.119028
v -4.321893 27.841354 -0.122132
v -17.318794 12.758157 -0.122132
v -4.321894 12.758156 5.261360
v 8.675003 12.758156 -0.122132
v -4.321894 0.026871 -13.119028
v -4.321894 0.806301 -26.115927
v 8.675002 0.806301 -13.119028
v -17.318794 0.806302 -13.119028
v -4.321894 0.806301 -0.122132
v 11.710462 38.693214 6.368661
v 26.719280 32.930977 6.368661
v 11.710462 34.555138 -8.640154
v 32.936127 9.478109 6.368661
v 26.719280 9.478110 -8.640154
v 11.710461 9.478111 -14.857012
v -3.298356 32.930977 6.368661
v -3.298357 9.478111 -8.640154
v -9.515213 9.478111 6.368661
v 11.710462 32.930977 21.377478
v -3.298357 9.478111 21.377478
v 11.710461 9.478111 27.594336
v 26.719280 9.478109 21.377478
v 11.710460 0.703063 6.368661
v 11.710460 0.075180 -8.640156
v 26.719280 1.146968 6.368661
v -3.298356 1.146969 6.368661
v 11.710460 1.146968 21.377478
vt 0.666667 1.000000
vt 0.500000 0.797275
vt 0.833333 0.797275
vt 0.500000 0.594551
vt 0.666667 0.674860
vt 0.833333 0.594551
vt 0.500000 0.391827
vt 0.605594 0.315266
vt 0.727740 0.315266
vt 0.833333 0.391827
vt 0.000000 1.000000
vt -0.166667 0.797275
vt 0.166667 0.797275
vt 1.000000 0.674859
vt 0.000000 0.674859
vt 0.166667 0.594551
vt 0.938927 0.315266
vt -0.061073 0.315266
vt 0.061073 0.315266
vt 0.166667 0.391827
vt 0.333333 1.000000
vt 0.333333 0.674860
vt 0.272260 0.315266
vt 0.394406 0.315266
vt 0.500000 0.066686
vt 0.625000 1.000000
vt 0.500000 0.750000
vt 0.750000 0.750000
vt 0.500000 0.500000
vt 0.625000 0.500000
vt 0.750000 0.500000
vt 0.875000 1.000000
vt 1.000000 0.750000
vt 0.875000 0.500000
vt 1.000000 0.500000
vt 0.125000 1.000000
vt 0.000000 0.750000
vt 0.250000 0.750000
vt 0.000000 0.500000
vt 0.125000 0.500000
vt 0.250000 0.500000
vt 0.375000 1.000000
vt 0.375000 0.500000
vt 0.625000 0.000000
vt 0.750000 0.250000
vt 0.500000 0.250000
vt 0.875000 0.000000
vt 1.000000 0.250000
vt 0.125000 0.000000
vt 0.250000 0.250000
vt 0.000000 0.250000
vt 0.375000 0.000000
vt 0.625000 1.000000
vt 0.500000 0.750000
vt 0.750000 0.750000
vt 0.500000 0.500000
vt 0.625000 0.500000
vt 0.750000 0.500000
vt 0.875000 1.000000
vt 1.000000 0.750000
vt 0.875000 0.500000
vt 1.000000 0.500000
vt 0.125000 1.000000
vt 0.000000 0.750000
vt 0.250000 0.750000
vt 0.000000 0.500000
vt 0.125000 0.500000
vt 0.250000 0.500000
vt 0.375000 1.000000
vt 0.375000 0.500000
vt 0.625000 0.000000
vt 0.750000 0.250000
vt 0.500000 0.250000
vt 0.875000 0.000000
vt 1.000000 0.250000
vt 0.125000 0.000000
vt 0.250000 0.250000
vt 0.000000 0.250000
vt 0.375000 0.000000
vn 0.1055 0.9775 -0.1828
vn 0.8054 0.3704 -0.4626
vn 0.3539 0.7064 -0.6130
vn -0.0021 0.3704 -0.9289
vn 0.8789 -0.0188 -0.4767
vn 0.8198 0.0590 -0.5697
vn 0.4987 -0.0721 -0.8638
vn 0.0835 0.0590 -0.9948
vn -0.0266 -0.0188 -0.9995
vn -0.2111 0.9775 0.0000
vn -0.8034 0.3704 -0.4662
vn -0.7078 0.7064 0.0000
vn -0.8034 0.3704 0.4662
vn -0.8523 -0.0188 -0.5228
vn -0.9032 0.0590 -0.4251
vn -0.9974 -0.0721 0.0000
vn -0.9032 0.0590 0.4251
vn -0.8523 -0.0188 0.5228
vn 0.1055 0.9775 0.1828
vn -0.0021 0.3704 0.9289
vn 0.3539 0.7064 0.6130
vn 0.8054 0.3704 0.4626
vn -0.0266 -0.0188 0.9995
vn 0.0835 0.0590 0.9948
vn 0.4987 -0.0721 0.8638
vn 0.8198 0.0590 0.5697
vn 0.8789 -0.0188 0.4767
vn 0.6036 -0.7973 0.0000
vn 0.0454 -0.9959 0.0787
vn 0.1346 -0.9909 0.0000
vn 0.0454 -0.9959 -0.0787
vn -0.3018 -0.7973 0.5228
vn -0.0400 -0.9968 0.0693
vn -0.0622 -0.9981 0.0000
vn -0.0400 -0.9968 -0.0693
vn -0.3018 -0.7973 -0.5228
vn 0.3067 0.9011 -0.3067
vn 0.8774 0.3132 -0.3634
vn 0.6038 0.5203 -0.6038
vn 0.3634 0.3132 -0.8774
vn -0.3067 0.9011 -0.3067
vn -0.3634 0.3132 -0.8774
vn -0.6038 0.5203 -0.6038
vn -0.8774 0.3132 -0.3634
vn -0.3067 0.9011 0.3067
vn -0.8774 0.3132 0.3634
vn -0.6038 0.5203 0.6038
vn -0.3634 0.3132 0.8774
vn 0.3067 0.9011 0.3067
vn 0.3634 0.3132 0.8774
vn 0.6038 0.5203 0.6038
vn 0.8774 0.3132 0.3634
vn 0.0598 -0.9964 -0.0598
vn 0.3533 -0.3842 -0.8530
vn 0.5606 -0.6096 -0.5605
vn 0.8530 -0.3842 -0.3533
vn -0.0598 -0.9964 -0.0598
vn -0.8530 -0.3842 -0.3533
vn -0.5606 -0.6096 -0.5606
vn -0.3533 -0.3842 -0.8530
vn -0.0598 -0.9964 0.0598
vn -0.3533 -0.3842 0.8530
vn -0.5606 -0.6096 0.5606
vn -0.8530 -0.3842 0.3533
vn 0.0598 -0.9964 0.0598
vn 0.8530 -0.3842 0.3533
vn 0.5606 -0.6096 0.5606
vn 0.3533 -0.3842 0.8530
vn 0.3471 0.9041 -0.2493
vn 0.8974 0.2379 -0.3717
vn 0.6692 0.4005 -0.6259
vn 0.3730 0.2233 -0.9006
vn -0.3471 0.9041 -0.2493
vn -0.3730 0.2233 -0.9006
vn -0.6692 0.4005 -0.6259
vn -0.8974 0.2379 -0.3717
vn -0.3374 0.8788 0.3374
vn -0.8974 0.2379 0.3717
vn -0.6442 0.4123 0.6442
vn -0.3717 0.2379 0.8974
vn 0.3374 0.8788 0.3374
vn 0.3717 0.2379 0.8974
vn 0.6442 0.4123 0.6442
vn 0.8974 0.2379 0.3717
vn 0.0295 -0.9989 0.0357
vn 0.0295 -0.9987 0.0418
vn 0.3266 -0.5213 -0.7884
vn 0.4804 -0.7668 -0.4257
vn 0.7606 -0.5676 -0.3151
vn -0.0295 -0.9989 0.0357
vn -0.0295 -0.9987 0.0418
vn -0.7606 -0.5676 -0.3151
vn -0.4804 -0.7668 -0.4257
vn -0.3266 -0.5213 -0.7884
vn -0.0296 -0.9991 0.0296
vn -0.3151 -0.5676 0.7606
vn -0.4366 -0.7866 0.4366
vn -0.7606 -0.5676 0.3151
vn 0.0296 -0.9991 0.0296
vn 0.7606 -0.5676 0.3151
vn 0.4366 -0.7866 0.4366
vn 0.3151 -0.5676 0.7606
usemtl Light_Leaves.004
s 1
f 1/1/1 2/2/1 3/3/1
f 2/2/2 4/4/2 5/5/2
f 2/2/3 5/5/3 3/3/3
f 3/3/4 5/5/4 6/6/4
f 4/4/5 7/7/5 8/8/5
f 4/4/6 8/8/6 5/5/6
f 5/5/7 8/8/7 9/9/7
f 5/5/8 9/9/8 6/6/8
f 6/6/9 9/9/9 10/10/9
f 1/11/10 3/12/10 11/13/10
f 3/3/11 6/6/11 12/14/11
f 3/12/12 12/15/12 11/13/12
f 11/13/13 12/15/13 13/16/13
f 6/6/14 10/10/14 14/17/14
f 6/6/15 14/17/15 12/14/15
f 12/15/16 14/18/16 15/19/16
f 12/15/17 15/19/17 13/16/17
f 13/16/18 15/19/18 16/20/18
f 1/21/19 11/13/19 2/2/19
f 11/13/20 13/16/20 17/22/20
f 11/13/21 17/22/21 2/2/21
f 2/2/22 17/22/22 4/4/22
f 13/16/23 16/20/23 18/23/23
f 13/16/24 18/23/24 17/22/24
f 17/22/25 18/23/25 19/24/25
f 17/22/26 19/24/26 4/4/26
f 4/4/27 19/24/27 7/7/27
f 7/7/28 19/24/28 8/8/28
f 19/24/29 18/23/29 20/25/29
f 19/24/30 20/25/30 8/8/30
f 8/8/31 20/25/31 9/9/31
f 18/23/32 16/20/32 15/19/32
f 18/23/33 15/19/33 20/25/33
f 20/25/34 15/19/34 14/18/34
f 20/25/35 14/17/35 9/9/35
f 9/9/36 14/17/36 10/10/36
f 21/26/37 22/27/37 23/28/37
f 22/27/38 24/29/38 25/30/38
f 22/27/39 25/30/39 23/28/39
f 23/28/40 25/30/40 26/31/40
f 21/32/41 23/28/41 27/33/41
f 23/28/42 26/31/42 28/34/42
f 23/28/43 28/34/43 27/33/43
f 27/33/44 28/34/44 29/35/44
f 21/36/45 27/37/45 30/38/45
f 27/37/46 29/39/46 31/40/46
f 27/37/47 31/40/47 30/38/47
f 30/38/48 31/40/48 32/41/48
f 21/42/49 30/38/49 22/27/49
f 30/38/50 32/41/50 33/43/50
f 30/38/51 33/43/51 22/27/51
f 22/27/52 33/43/52 24/29/52
f 34/44/53 35/45/53 36/46/53
f 35/45/54 26/31/54 25/30/54
f 35/45/55 25/30/55 36/46/55
f 36/46/56 25/30/56 24/29/56
f 34/47/57 37/48/57 35/45/57
f 37/48/58 29/35/58 28/34/58
f 37/48/59 28/34/59 35/45/59
f 35/45/60 28/34/60 26/31/60
f 34/49/61 38/50/61 37/51/61
f 38/50/62 32/41/62 31/40/62
f 38/50/63 31/40/63 37/51/63
f 37/51/64 31/40/64 29/39/64
f 34/52/65 36/46/65 38/50/65
f 36/46/66 24/29/66 33/43/66
f 36/46/67 33/43/67 38/50/67
f 38/50/68 33/43/68 32/41/68
f 39/53/69 40/54/69 41/55/69
f 40/54/70 42/56/70 43/57/70
f 40/54/71 43/57/71 41/55/71
f 41/55/72 43/57/72 44/58/72
f 39/59/73 41/55/73 45/60/73
f 41/55/74 44/58/74 46/61/74
f 41/55/75 46/61/75 45/60/75
f 45/60/76 46/61/76 47/62/76
f 39/63/77 45/64/77 48/65/77
f 45/64/78 47/66/78 49/67/78
f 45/64/79 49/67/79 48/65/79
f 48/65/80 49/67/80 50/68/80
f 39/69/81 48/65/81 40/54/81
f 48/65/82 50/68/82 51/70/82
f 48/65/83 51/70/83 40/54/83
f 40/54/84 51/70/84 42/56/84
f 52/71/85 53/72/86 54/73/85
f 53/72/87 44/58/87 43/57/87
f 53/72/88 43/57/88 54/73/88
f 54/73/89 43/57/89 42/56/89
f 52/74/90 55/75/90 53/72/91
f 55/75/92 47/62/92 46/61/92
f 55/75/93 46/61/93 53/72/93
f 53/72/94 46/61/94 44/58/94
f 52/76/90 56/77/95 55/78/90
f 56/77/96 50/68/96 49/67/96
f 56/77/97 49/67/97 55/78/97
f 55/78/98 49/67/98 47/66/98
f 52/79/85 54/73/85 56/77/99
f 54/73/100 42/56/100 51/70/100
f 54/73/101 51/70/101 56/77/101
f 56/77/102 51/70/102 50/68/102
