# Blender v3.0.1 OBJ File: ''
# www.blender.org
mtllib snow_pine.mtl
o Snow_Pine_Tree_Mesh.006
v 2.731718 105.128761 -2.394046
v 2.731717 104.192787 -36.235188
v -26.575567 104.192787 -19.314619
v -26.575567 104.192787 14.526524
v 2.731719 104.192787 31.447094
v 32.039001 104.192787 14.526527
v 32.039009 104.192787 -19.314604
v 6.374887 57.586613 -55.360714
v -48.106407 57.835712 -30.994026
v -52.055458 53.672829 29.237343
v 1.945424 51.565136 59.982792
v 45.967163 56.793148 29.237354
v 51.841095 53.672829 -23.758327
v 2.731718 104.353340 -2.394046
v 2.731719 135.158722 -2.394045
v 2.731718 134.368073 -30.980314
v -22.024715 134.368073 -16.687180
v -22.024715 134.368073 11.899090
v 2.731719 134.368073 26.192225
v 27.488148 134.368073 11.899094
v 27.488157 134.368073 -16.687168
v 5.809175 94.998924 -47.136017
v -40.212234 95.209358 -26.553003
v -43.548073 91.692879 24.325603
v 1.945428 89.912483 50.159313
v 39.253540 94.328682 24.325613
v 41.886147 95.922066 -20.552759
v 2.731719 134.503693 -2.394045
v 2.731720 166.329529 -2.394044
v 2.731719 165.836212 -20.230320
v -12.714947 165.836212 -11.312182
v -12.714947 165.836212 6.524094
v 2.731720 165.836212 15.442231
v 18.178385 165.836212 6.524097
v 18.178392 165.836212 -11.312175
v 5.134902 128.962250 -39.636272
v -30.803175 122.468193 -23.563009
v -33.408134 126.380562 18.471308
v 1.945432 124.990242 38.450718
v 31.251577 128.438843 18.471315
v 31.315510 126.380562 -18.091066
v 2.731720 165.920837 -2.394044
v 2.694334 188.964813 -2.359652
v 2.694333 188.589874 -15.916653
v -9.046373 188.589874 -9.138153
v -9.046373 188.589874 4.418849
v 2.694334 188.589874 11.197348
v 14.435040 188.589874 4.418851
v 14.435044 188.589874 -9.138147
v 4.520946 160.562683 -30.666733
v -22.794874 155.626709 -18.449764
v -24.774849 158.600403 13.499690
v 1.908044 157.543640 28.473093
v 24.371719 160.164856 13.499694
v 24.420311 158.600403 -14.290650
v 2.694334 188.654175 -2.359652
v 2.705505 222.955536 -2.369918
v 2.705505 222.908112 -4.084104
v 1.220976 222.908112 -3.227010
v 1.220976 222.908112 -1.512825
v 2.705505 222.908112 -0.655733
v 4.190032 222.908112 -1.512825
v 4.190033 222.908112 -3.227010
v 3.986701 184.429626 -22.224785
v -15.172886 180.967468 -13.655683
v -16.561659 183.053253 8.753979
v 1.919208 182.312042 18.991938
v 17.910229 184.150574 8.753983
v 17.944311 183.053253 -10.738440
v 2.705505 222.916260 -2.369918
v 2.824959 80.760002 -2.622328
v 2.824957 79.688194 -41.374668
v -30.735544 79.688194 -21.998499
v -30.735544 79.688194 16.753841
v 2.824959 79.688194 36.130009
v 36.385460 79.688194 16.753845
v 36.385475 79.688194 -21.998482
v 6.996843 26.318298 -63.275791
v -55.391052 26.603546 -35.372883
v -59.913208 21.836533 33.599564
v 2.038671 19.422958 68.935532
v 52.334953 25.409691 33.599579
v 59.061333 21.836533 -27.087101
v 2.824959 79.872047 -2.622328
v -4.351952 0.031693 -15.185953
v -22.497669 0.031693 -10.220854
v 0.613148 0.031693 2.959761
v -17.532568 0.031693 7.924861
v -4.351951 24.319725 -15.185952
v -22.497669 24.319725 -10.220853
v -17.532568 24.319725 7.924862
v 0.613148 24.319725 2.959762
v -4.351951 48.607750 -15.185951
v -22.497669 48.607750 -10.220852
v -17.532568 48.607750 7.924863
v 0.613149 48.607750 2.959763
v 3.932554 72.895767 -17.452787
v -14.213160 72.895767 -12.487689
v -9.248059 72.895767 5.658025
v 8.897657 72.895767 0.692925
v 3.932554 97.183784 -17.452787
v -14.213160 97.183784 -12.487688
v -9.248059 97.183784 5.658026
v 8.897657 97.183784 0.692926
v 2.731718 108.583626 -2.394046
v 2.731716 107.647652 -36.235188
v -26.575569 107.647652 -19.314617
v -26.575569 107.647652 14.526525
v 2.731719 107.647652 31.447098
v 32.039001 107.647652 14.526528
v 32.039013 107.647652 -19.314606
v 6.374889 61.041477 -55.360718
v -48.106407 61.290577 -30.994028
v -52.055458 57.127693 29.237343
v 1.945423 55.020000 59.982792
v 45.967163 60.248013 29.237356
v 51.841095 57.127693 -23.758327
v 2.731718 107.808205 -2.394046
v 2.731719 138.613586 -2.394045
v 2.731718 137.822937 -30.980314
v -22.024715 137.822937 -16.687181
v -22.024715 137.822937 11.899090
v 2.731719 137.822937 26.192226
v 27.488148 137.822937 11.899092
v 27.488159 137.822937 -16.687168
v 5.809174 98.453789 -47.136021
v -40.212234 98.664223 -26.553003
v -43.548073 95.147743 24.325607
v 1.945425 93.367348 50.159313
v 39.253540 97.783546 24.325617
v 41.886154 99.376930 -20.552759
v 2.731719 137.958557 -2.394045
v 2.731720 169.784393 -2.394043
v 2.731719 169.291077 -20.230320
v -12.714948 169.291077 -11.312182
v -12.714948 169.291077 6.524094
v 2.731720 169.291077 15.442231
v 18.178389 169.291077 6.524098
v 18.178392 169.291077 -11.312175
v 5.134901 132.417114 -39.636272
v -30.803175 125.923058 -23.563013
v -33.408134 129.835419 18.471308
v 1.945432 128.445099 38.450718
v 31.251579 131.893707 18.471315
v 31.315514 129.835419 -18.091066
v 2.731720 169.375702 -2.394043
v 2.694334 192.419678 -2.359652
v 2.694334 192.044739 -15.916653
v -9.046373 192.044739 -9.138153
v -9.046373 192.044739 4.418849
v 2.694334 192.044739 11.197350
v 14.435040 192.044739 4.418851
v 14.435045 192.044739 -9.138147
v 4.520945 164.017548 -30.666733
v -22.794876 159.081573 -18.449764
v -24.774851 162.055267 13.499690
v 1.908044 160.998505 28.473095
v 24.371721 163.619720 13.499696
v 24.420311 162.055267 -14.290650
v 2.694334 192.109039 -2.359652
v 2.705505 226.410400 -2.369918
v 2.705505 226.362976 -4.084104
v 1.220976 226.362976 -3.227010
v 1.220976 226.362976 -1.512825
v 2.705505 226.362976 -0.655732
v 4.190032 226.362976 -1.512824
v 4.190033 226.362976 -3.227010
v 3.986701 187.884491 -22.224785
v -15.172886 184.422333 -13.655682
v -16.561659 186.508118 8.753979
v 1.919208 185.766907 18.991940
v 17.910231 187.605438 8.753984
v 17.944313 186.508118 -10.738441
v 2.705505 226.371124 -2.369918
v 2.824959 84.214867 -2.622328
v 2.824957 83.143059 -41.374672
v -30.735544 83.143059 -21.998499
v -30.735544 83.143059 16.753843
v 2.824958 83.143059 36.130005
v 36.385468 83.143059 16.753847
v 36.385483 83.143059 -21.998480
v 6.996844 29.773163 -63.275795
v -55.391052 30.058411 -35.372887
v -59.913216 25.291397 33.599564
v 2.038670 22.877823 68.935532
v 52.334953 28.864555 33.599575
v 59.061340 25.291397 -27.087101
v 2.824959 83.326912 -2.622328
v -9.248058 100.638649 5.658026
v 8.897657 100.638649 0.692927
v 3.932555 100.638649 -17.452787
v -14.213160 100.638649 -12.487690
vt 0.384326 0.996934
vt 0.384326 0.885924
vt 0.439831 0.885924
vt 0.439831 0.996934
vt 0.495337 0.885924
vt 0.495337 0.996934
vt 0.550843 0.885924
vt 0.550843 0.996934
vt 0.606348 0.885924
vt 0.606348 0.996934
vt 0.661853 0.885924
vt 0.661853 0.996934
vt 0.717358 0.885924
vt 0.384326 0.774913
vt 0.439831 0.774913
vt 0.495337 0.774913
vt 0.550843 0.774913
vt 0.606348 0.774913
vt 0.661853 0.774913
vt 0.717358 0.774913
vt 0.384326 0.663902
vt 0.439831 0.663902
vt 0.495337 0.663902
vt 0.550843 0.663902
vt 0.606348 0.663902
vt 0.661853 0.663902
vt 0.720765 0.999500
vt 0.720765 0.906588
vt 0.767221 0.906588
vt 0.767221 0.999500
vt 0.813677 0.906588
vt 0.813677 0.999500
vt 0.860133 0.906588
vt 0.860133 0.999500
vt 0.906588 0.906588
vt 0.906588 0.999500
vt 0.953044 0.906588
vt 0.953044 0.999500
vt 0.999500 0.906588
vt 0.720765 0.813677
vt 0.767221 0.813677
vt 0.813677 0.813677
vt 0.860133 0.813677
vt 0.906588 0.813677
vt 0.953044 0.813677
vt 0.999500 0.813677
vt 0.720765 0.720765
vt 0.767221 0.720765
vt 0.813677 0.720765
vt 0.860133 0.720765
vt 0.906588 0.720765
vt 0.953044 0.720765
vt 0.744458 0.712881
vt 0.744458 0.636533
vt 0.782632 0.636533
vt 0.782632 0.712881
vt 0.820807 0.636533
vt 0.820807 0.712881
vt 0.858981 0.636533
vt 0.858981 0.712881
vt 0.897155 0.636533
vt 0.897155 0.712881
vt 0.935329 0.636533
vt 0.935329 0.712881
vt 0.973503 0.636533
vt 0.744458 0.560184
vt 0.782632 0.560184
vt 0.820807 0.560184
vt 0.858981 0.560184
vt 0.897155 0.560184
vt 0.935329 0.560184
vt 0.973503 0.560184
vt 0.744458 0.483836
vt 0.782632 0.483836
vt 0.820807 0.483836
vt 0.858981 0.483836
vt 0.897155 0.483836
vt 0.935329 0.483836
vt 0.559653 0.491959
vt 0.559653 0.433968
vt 0.588649 0.433968
vt 0.588649 0.491959
vt 0.617645 0.433968
vt 0.617645 0.491959
vt 0.646640 0.433968
vt 0.646640 0.491959
vt 0.675636 0.433968
vt 0.675636 0.491959
vt 0.704632 0.433968
vt 0.704632 0.491959
vt 0.733627 0.433968
vt 0.559653 0.375977
vt 0.588649 0.375977
vt 0.617645 0.375977
vt 0.646640 0.375977
vt 0.675636 0.375977
vt 0.704632 0.375977
vt 0.733627 0.375977
vt 0.559653 0.317985
vt 0.588649 0.317985
vt 0.617645 0.317985
vt 0.646640 0.317985
vt 0.675636 0.317985
vt 0.704632 0.317985
vt 0.588085 0.636749
vt 0.588085 0.588937
vt 0.611991 0.588937
vt 0.611991 0.636749
vt 0.635897 0.588937
vt 0.635897 0.636749
vt 0.659803 0.588937
vt 0.659803 0.636749
vt 0.683709 0.588937
vt 0.683709 0.636749
vt 0.707615 0.588937
vt 0.707615 0.636749
vt 0.731521 0.588937
vt 0.588085 0.541125
vt 0.611991 0.541125
vt 0.635897 0.541125
vt 0.659803 0.541125
vt 0.683709 0.541125
vt 0.707615 0.541125
vt 0.731521 0.541125
vt 0.588085 0.493313
vt 0.611991 0.493313
vt 0.635897 0.493313
vt 0.659803 0.493313
vt 0.683709 0.493313
vt 0.707615 0.493313
vt 0.000500 0.997950
vt 0.000500 0.870806
vt 0.064072 0.870806
vt 0.064072 0.997950
vt 0.127645 0.870806
vt 0.127645 0.997950
vt 0.191217 0.870806
vt 0.191217 0.997950
vt 0.254789 0.870806
vt 0.254789 0.997950
vt 0.318362 0.870806
vt 0.318362 0.997950
vt 0.381934 0.870806
vt 0.000500 0.743661
vt 0.064072 0.743661
vt 0.127645 0.743661
vt 0.191217 0.743661
vt 0.254789 0.743661
vt 0.318362 0.743661
vt 0.381934 0.743661
vt 0.000500 0.616517
vt 0.064072 0.616517
vt 0.127645 0.616517
vt 0.191217 0.616517
vt 0.254789 0.616517
vt 0.318362 0.616517
vt 0.046148 0.636757
vt 0.016431 0.638471
vt 0.014716 0.608754
vt 0.044433 0.607039
vt 0.341678 0.336940
vt 0.448632 0.336940
vt 0.448632 0.347635
vt 0.341678 0.347635
vt 0.448632 0.358330
vt 0.341678 0.358330
vt 0.448632 0.369026
vt 0.341678 0.369026
vt 0.448632 0.379721
vt 0.341678 0.379721
vt 0.332201 0.384326
vt 0.437378 0.384326
vt 0.437378 0.394844
vt 0.332201 0.394844
vt 0.437378 0.405361
vt 0.332201 0.405361
vt 0.437378 0.415879
vt 0.332201 0.415879
vt 0.437378 0.426397
vt 0.332201 0.426397
vt 0.156873 0.540699
vt 0.263827 0.540699
vt 0.263827 0.551395
vt 0.156873 0.551395
vt 0.263827 0.562090
vt 0.156873 0.562090
vt 0.263827 0.572785
vt 0.156873 0.572785
vt 0.263827 0.583481
vt 0.156873 0.583481
vt 0.000500 0.559653
vt 0.108262 0.559653
vt 0.108262 0.570430
vt 0.000500 0.570430
vt 0.108262 0.581206
vt 0.000500 0.581206
vt 0.108262 0.591982
vt 0.000500 0.591982
vt 0.108262 0.602758
vt 0.000500 0.602758
vt 0.437378 0.405361
vt 0.332201 0.394844
vt 0.437378 0.394844
vt 0.332201 0.405361
vt 0.384326 0.333532
vt 0.384326 0.222521
vt 0.439831 0.222521
vt 0.439831 0.333532
vt 0.495337 0.222521
vt 0.495337 0.333532
vt 0.550843 0.222521
vt 0.550843 0.333532
vt 0.606348 0.222521
vt 0.606348 0.333532
vt 0.661853 0.222521
vt 0.661853 0.333532
vt 0.717358 0.222521
vt 0.384326 0.111511
vt 0.439831 0.111511
vt 0.495337 0.111511
vt 0.550843 0.111511
vt 0.606348 0.111511
vt 0.661853 0.111511
vt 0.717358 0.111511
vt 0.384326 0.000500
vt 0.439831 0.000500
vt 0.495337 0.000500
vt 0.550843 0.000500
vt 0.606348 0.000500
vt 0.661853 0.000500
vt 0.720765 0.279235
vt 0.720765 0.186323
vt 0.767221 0.186323
vt 0.767221 0.279235
vt 0.813677 0.186323
vt 0.813677 0.279235
vt 0.860133 0.186323
vt 0.860133 0.279235
vt 0.906588 0.186323
vt 0.906588 0.279235
vt 0.953044 0.186323
vt 0.953044 0.279235
vt 0.999500 0.186323
vt 0.720765 0.093412
vt 0.767221 0.093412
vt 0.813677 0.093412
vt 0.860133 0.093412
vt 0.906588 0.093412
vt 0.953044 0.093412
vt 0.999500 0.093412
vt 0.720765 0.000500
vt 0.767221 0.000500
vt 0.813677 0.000500
vt 0.860133 0.000500
vt 0.906588 0.000500
vt 0.953044 0.000500
vt 0.763413 0.513860
vt 0.763413 0.437512
vt 0.801587 0.437512
vt 0.801587 0.513860
vt 0.839761 0.437512
vt 0.839761 0.513860
vt 0.877935 0.437512
vt 0.877935 0.513860
vt 0.916109 0.437512
vt 0.916109 0.513860
vt 0.954283 0.437512
vt 0.954283 0.513860
vt 0.992457 0.437512
vt 0.763413 0.361163
vt 0.801587 0.361163
vt 0.839761 0.361163
vt 0.877935 0.361163
vt 0.916109 0.361163
vt 0.954283 0.361163
vt 0.992457 0.361163
vt 0.763413 0.284815
vt 0.801587 0.284815
vt 0.839761 0.284815
vt 0.877935 0.284815
vt 0.916109 0.284815
vt 0.954283 0.284815
vt 0.000500 0.558300
vt 0.000500 0.500308
vt 0.029496 0.500308
vt 0.029496 0.558300
vt 0.058491 0.500308
vt 0.058491 0.558300
vt 0.087487 0.500308
vt 0.087487 0.558300
vt 0.116482 0.500308
vt 0.116482 0.558300
vt 0.145478 0.500308
vt 0.145478 0.558300
vt 0.174474 0.500308
vt 0.000500 0.442317
vt 0.029496 0.442317
vt 0.058491 0.442317
vt 0.087487 0.442317
vt 0.116482 0.442317
vt 0.145478 0.442317
vt 0.174474 0.442317
vt 0.000500 0.384326
vt 0.029496 0.384326
vt 0.058491 0.384326
vt 0.087487 0.384326
vt 0.116482 0.384326
vt 0.145478 0.384326
vt 0.175828 0.537239
vt 0.175828 0.489427
vt 0.199734 0.489427
vt 0.199734 0.537239
vt 0.223640 0.489427
vt 0.223640 0.537239
vt 0.247546 0.489427
vt 0.247546 0.537239
vt 0.271452 0.489427
vt 0.271452 0.537239
vt 0.295358 0.489427
vt 0.295358 0.537239
vt 0.319264 0.489427
vt 0.175828 0.441615
vt 0.199734 0.441615
vt 0.223640 0.441615
vt 0.247546 0.441615
vt 0.271452 0.441615
vt 0.295358 0.441615
vt 0.319264 0.441615
vt 0.175828 0.393803
vt 0.199734 0.393803
vt 0.223640 0.393803
vt 0.247546 0.393803
vt 0.271452 0.393803
vt 0.295358 0.393803
vt 0.000500 0.381934
vt 0.000500 0.254789
vt 0.064072 0.254789
vt 0.064072 0.381934
vt 0.127645 0.254789
vt 0.127645 0.381934
vt 0.191217 0.254789
vt 0.191217 0.381934
vt 0.254789 0.254789
vt 0.254789 0.381934
vt 0.318362 0.254789
vt 0.318362 0.381934
vt 0.381934 0.254789
vt 0.000500 0.127644
vt 0.064072 0.127644
vt 0.127645 0.127644
vt 0.191217 0.127644
vt 0.254789 0.127644
vt 0.318362 0.127644
vt 0.381934 0.127644
vt 0.000500 0.000500
vt 0.064072 0.000500
vt 0.127645 0.000500
vt 0.191217 0.000500
vt 0.254789 0.000500
vt 0.318362 0.000500
vt 0.426333 0.441124
vt 0.332201 0.431711
vt 0.426333 0.431711
vt 0.332201 0.441124
vn -0.0160 0.9995 -0.0276
vn -0.0319 0.9995 0.0000
vn -0.0160 0.9995 0.0276
vn 0.0160 0.9995 0.0276
vn 0.0319 0.9995 -0.0000
vn 0.0160 0.9995 -0.0276
vn -0.4120 0.3571 -0.8383
vn -0.8997 0.4360 -0.0185
vn -0.4375 0.4402 0.7841
vn 0.4791 0.4006 0.7810
vn 0.9425 0.3301 0.0519
vn 0.5277 0.3185 -0.7875
vn 0.2854 -0.7086 0.6453
vn 0.6770 -0.7359 -0.0065
vn 0.3189 -0.7255 -0.6099
vn -0.3409 -0.7155 -0.6098
vn -0.7260 -0.6866 -0.0400
vn -0.4558 -0.6825 0.5713
vn -0.4371 0.4397 0.7847
vn 0.4776 0.3992 0.7827
vn 0.9465 0.3200 0.0409
vn 0.5249 0.3207 -0.7884
vn 0.3183 -0.7252 -0.6106
vn -0.3389 -0.7149 -0.6116
vn -0.7158 -0.6951 -0.0667
vn -0.4142 -0.6962 0.5863
vn -0.4410 0.4027 -0.8021
vn -0.9035 0.4233 -0.0670
vn -0.4310 0.4546 0.7795
vn 0.4690 0.4206 0.7766
vn 0.9466 0.3221 -0.0111
vn 0.5638 0.3684 -0.7392
vn 0.4082 -0.6347 0.6562
vn 0.7613 -0.6395 0.1067
vn 0.3471 -0.6658 -0.6605
vn -0.3734 -0.6517 -0.6602
vn -0.8039 -0.5939 0.0320
vn -0.5357 -0.6164 0.5771
vn -0.4296 0.4535 0.7809
vn 0.4646 0.4176 0.7809
vn 0.3453 -0.6650 -0.6622
vn -0.3675 -0.6500 -0.6652
vn -0.0160 0.9995 -0.0277
vn -0.0160 0.9995 0.0277
vn 0.0160 0.9995 0.0277
vn 0.0160 0.9995 -0.0277
vn -0.4364 0.3729 -0.8188
vn -0.9192 0.3842 -0.0861
vn -0.4337 0.4003 0.8072
vn 0.4677 0.3775 0.7992
vn 0.9441 0.3294 -0.0155
vn 0.6037 0.3504 -0.7161
vn 0.4334 -0.4017 0.8067
vn 0.9064 -0.4117 0.0945
vn 0.4248 -0.4279 -0.7978
vn -0.4590 -0.4067 -0.7899
vn -0.9326 -0.3604 0.0187
vn -0.6100 -0.3792 0.6958
vn -0.4378 0.4405 0.7837
vn 0.4801 0.4016 0.7799
vn 0.3194 -0.7256 -0.6095
vn -0.3423 -0.7159 -0.6085
vn 0.0000 -1.0000 0.0000
vn -0.2639 0.0000 -0.9645
vn -0.9645 0.0000 0.2639
vn -0.9506 0.1691 0.2601
vn 0.2639 -0.0000 0.9645
vn 0.9645 -0.0000 -0.2639
vn 0.9506 -0.1691 -0.2601
vn 0.0000 1.0000 0.0000
usemtl Dark_Leaves.003
s 1
f 1/1/1 2/2/1 3/3/1
f 1/4/2 3/3/2 4/5/2
f 1/6/3 4/5/3 5/7/3
f 1/8/4 5/7/4 6/9/4
f 1/10/5 6/9/5 7/11/5
f 1/12/6 7/11/6 2/13/6
f 2/2/7 8/14/7 9/15/7 3/3/7
f 3/3/8 9/15/8 10/16/8 4/5/8
f 4/5/9 10/16/9 11/17/9 5/7/9
f 5/7/10 11/17/10 12/18/10 6/9/10
f 6/9/11 12/18/11 13/19/11 7/11/11
f 7/11/12 13/19/12 8/20/12 2/13/12
f 14/21/13 9/15/13 8/14/13
f 14/22/14 10/16/14 9/15/14
f 14/23/15 11/17/15 10/16/15
f 14/24/16 12/18/16 11/17/16
f 14/25/17 13/19/17 12/18/17
f 14/26/18 8/20/18 13/19/18
f 15/27/1 16/28/1 17/29/1
f 15/30/2 17/29/2 18/31/2
f 15/32/3 18/31/3 19/33/3
f 15/34/4 19/33/4 20/35/4
f 15/36/5 20/35/5 21/37/5
f 15/38/6 21/37/6 16/39/6
f 16/28/7 22/40/7 23/41/7 17/29/7
f 17/29/8 23/41/8 24/42/8 18/31/8
f 18/31/19 24/42/19 25/43/19 19/33/19
f 19/33/20 25/43/20 26/44/20 20/35/20
f 20/35/21 26/44/21 27/45/21 21/37/21
f 21/37/22 27/45/22 22/46/22 16/39/22
f 28/47/13 23/41/13 22/40/13
f 28/48/14 24/42/14 23/41/14
f 28/49/23 25/43/23 24/42/23
f 28/50/24 26/44/24 25/43/24
f 28/51/25 27/45/25 26/44/25
f 28/52/26 22/46/26 27/45/26
f 29/53/1 30/54/1 31/55/1
f 29/56/2 31/55/2 32/57/2
f 29/58/3 32/57/3 33/59/3
f 29/60/4 33/59/4 34/61/4
f 29/62/5 34/61/5 35/63/5
f 29/64/6 35/63/6 30/65/6
f 30/54/27 36/66/27 37/67/27 31/55/27
f 31/55/28 37/67/28 38/68/28 32/57/28
f 32/57/29 38/68/29 39/69/29 33/59/29
f 33/59/30 39/69/30 40/70/30 34/61/30
f 34/61/31 40/70/31 41/71/31 35/63/31
f 35/63/32 41/71/32 36/72/32 30/65/32
f 42/73/33 37/67/33 36/66/33
f 42/74/34 38/68/34 37/67/34
f 42/75/35 39/69/35 38/68/35
f 42/76/36 40/70/36 39/69/36
f 42/77/37 41/71/37 40/70/37
f 42/78/38 36/72/38 41/71/38
f 43/79/1 44/80/1 45/81/1
f 43/82/2 45/81/2 46/83/2
f 43/84/3 46/83/3 47/85/3
f 43/86/4 47/85/4 48/87/4
f 43/88/5 48/87/5 49/89/5
f 43/90/6 49/89/6 44/91/6
f 44/80/27 50/92/27 51/93/27 45/81/27
f 45/81/28 51/93/28 52/94/28 46/83/28
f 46/83/39 52/94/39 53/95/39 47/85/39
f 47/85/40 53/95/40 54/96/40 48/87/40
f 48/87/31 54/96/31 55/97/31 49/89/31
f 49/89/32 55/97/32 50/98/32 44/91/32
f 56/99/33 51/93/33 50/92/33
f 56/100/34 52/94/34 51/93/34
f 56/101/41 53/95/41 52/94/41
f 56/102/42 54/96/42 53/95/42
f 56/103/37 55/97/37 54/96/37
f 56/104/38 50/98/38 55/97/38
f 57/105/43 58/106/43 59/107/43
f 57/108/2 59/107/2 60/109/2
f 57/110/44 60/109/44 61/111/44
f 57/112/45 61/111/45 62/113/45
f 57/114/5 62/113/5 63/115/5
f 57/116/46 63/115/46 58/117/46
f 58/106/47 64/118/47 65/119/47 59/107/47
f 59/107/48 65/119/48 66/120/48 60/109/48
f 60/109/49 66/120/49 67/121/49 61/111/49
f 61/111/50 67/121/50 68/122/50 62/113/50
f 62/113/51 68/122/51 69/123/51 63/115/51
f 63/115/52 69/123/52 64/124/52 58/117/52
f 70/125/53 65/119/53 64/118/53
f 70/126/54 66/120/54 65/119/54
f 70/127/55 67/121/55 66/120/55
f 70/128/56 68/122/56 67/121/56
f 70/129/57 69/123/57 68/122/57
f 70/130/58 64/124/58 69/123/58
f 71/131/1 72/132/1 73/133/1
f 71/134/2 73/133/2 74/135/2
f 71/136/3 74/135/3 75/137/3
f 71/138/4 75/137/4 76/139/4
f 71/140/5 76/139/5 77/141/5
f 71/142/6 77/141/6 72/143/6
f 72/132/7 78/144/7 79/145/7 73/133/7
f 73/133/8 79/145/8 80/146/8 74/135/8
f 74/135/59 80/146/59 81/147/59 75/137/59
f 75/137/60 81/147/60 82/148/60 76/139/60
f 76/139/11 82/148/11 83/149/11 77/141/11
f 77/141/12 83/149/12 78/150/12 72/143/12
f 84/151/13 79/145/13 78/144/13
f 84/152/14 80/146/14 79/145/14
f 84/153/61 81/147/61 80/146/61
f 84/154/62 82/148/62 81/147/62
f 84/155/17 83/149/17 82/148/17
f 84/156/18 78/150/18 83/149/18
usemtl Wood.006
f 85/157/63 87/158/63 88/159/63 86/160/63
f 85/161/64 86/162/64 90/163/64 89/164/64
f 89/164/64 90/163/64 94/165/64 93/166/64
f 93/166/64 94/165/64 98/167/64 97/168/64
f 97/168/64 98/167/64 102/169/64 101/170/64
f 86/171/65 88/172/65 91/173/65 90/174/65
f 90/174/65 91/173/65 95/175/66 94/176/66
f 94/176/66 95/175/66 99/177/66 98/178/66
f 98/178/66 99/177/66 103/179/65 102/180/65
f 88/181/67 87/182/67 92/183/67 91/184/67
f 91/184/67 92/183/67 96/185/67 95/186/67
f 95/186/67 96/185/67 100/187/67 99/188/67
f 99/188/67 100/187/67 104/189/67 103/190/67
f 87/191/68 85/192/68 89/193/68 92/194/68
f 92/194/68 89/193/68 93/195/69 96/196/69
f 96/196/69 93/195/69 97/197/69 100/198/69
f 100/198/69 97/197/69 101/199/68 104/200/68
f 104/201/70 101/202/70 102/203/70 103/204/70
usemtl Snow.001
f 105/205/1 106/206/1 107/207/1
f 105/208/2 107/207/2 108/209/2
f 105/210/3 108/209/3 109/211/3
f 105/212/4 109/211/4 110/213/4
f 105/214/5 110/213/5 111/215/5
f 105/216/6 111/215/6 106/217/6
f 106/206/7 112/218/7 113/219/7 107/207/7
f 107/207/8 113/219/8 114/220/8 108/209/8
f 108/209/9 114/220/9 115/221/9 109/211/9
f 109/211/10 115/221/10 116/222/10 110/213/10
f 110/213/11 116/222/11 117/223/11 111/215/11
f 111/215/12 117/223/12 112/224/12 106/217/12
f 118/225/13 113/219/13 112/218/13
f 118/226/14 114/220/14 113/219/14
f 118/227/15 115/221/15 114/220/15
f 118/228/16 116/222/16 115/221/16
f 118/229/17 117/223/17 116/222/17
f 118/230/18 112/224/18 117/223/18
f 119/231/1 120/232/1 121/233/1
f 119/234/2 121/233/2 122/235/2
f 119/236/3 122/235/3 123/237/3
f 119/238/4 123/237/4 124/239/4
f 119/240/5 124/239/5 125/241/5
f 119/242/6 125/241/6 120/243/6
f 120/232/7 126/244/7 127/245/7 121/233/7
f 121/233/8 127/245/8 128/246/8 122/235/8
f 122/235/19 128/246/19 129/247/19 123/237/19
f 123/237/20 129/247/20 130/248/20 124/239/20
f 124/239/21 130/248/21 131/249/21 125/241/21
f 125/241/22 131/249/22 126/250/22 120/243/22
f 132/251/13 127/245/13 126/244/13
f 132/252/14 128/246/14 127/245/14
f 132/253/23 129/247/23 128/246/23
f 132/254/24 130/248/24 129/247/24
f 132/255/25 131/249/25 130/248/25
f 132/256/26 126/250/26 131/249/26
f 133/257/1 134/258/1 135/259/1
f 133/260/2 135/259/2 136/261/2
f 133/262/3 136/261/3 137/263/3
f 133/264/4 137/263/4 138/265/4
f 133/266/5 138/265/5 139/267/5
f 133/268/6 139/267/6 134/269/6
f 134/258/27 140/270/27 141/271/27 135/259/27
f 135/259/28 141/271/28 142/272/28 136/261/28
f 136/261/29 142/272/29 143/273/29 137/263/29
f 137/263/30 143/273/30 144/274/30 138/265/30
f 138/265/31 144/274/31 145/275/31 139/267/31
f 139/267/32 145/275/32 140/276/32 134/269/32
f 146/277/33 141/271/33 140/270/33
f 146/278/34 142/272/34 141/271/34
f 146/279/35 143/273/35 142/272/35
f 146/280/36 144/274/36 143/273/36
f 146/281/37 145/275/37 144/274/37
f 146/282/38 140/276/38 145/275/38
f 147/283/1 148/284/1 149/285/1
f 147/286/2 149/285/2 150/287/2
f 147/288/3 150/287/3 151/289/3
f 147/290/4 151/289/4 152/291/4
f 147/292/5 152/291/5 153/293/5
f 147/294/6 153/293/6 148/295/6
f 148/284/27 154/296/27 155/297/27 149/285/27
f 149/285/28 155/297/28 156/298/28 150/287/28
f 150/287/39 156/298/39 157/299/39 151/289/39
f 151/289/40 157/299/40 158/300/40 152/291/40
f 152/291/31 158/300/31 159/301/31 153/293/31
f 153/293/32 159/301/32 154/302/32 148/295/32
f 160/303/33 155/297/33 154/296/33
f 160/304/34 156/298/34 155/297/34
f 160/305/41 157/299/41 156/298/41
f 160/306/42 158/300/42 157/299/42
f 160/307/37 159/301/37 158/300/37
f 160/308/38 154/302/38 159/301/38
f 161/309/1 162/310/1 163/311/1
f 161/312/2 163/311/2 164/313/2
f 161/314/3 164/313/3 165/315/3
f 161/316/4 165/315/4 166/317/4
f 161/318/5 166/317/5 167/319/5
f 161/320/46 167/319/46 162/321/46
f 162/310/47 168/322/47 169/323/47 163/311/47
f 163/311/48 169/323/48 170/324/48 164/313/48
f 164/313/49 170/324/49 171/325/49 165/315/49
f 165/315/50 171/325/50 172/326/50 166/317/50
f 166/317/51 172/326/51 173/327/51 167/319/51
f 167/319/52 173/327/52 168/328/52 162/321/52
f 174/329/53 169/323/53 168/322/53
f 174/330/54 170/324/54 169/323/54
f 174/331/55 171/325/55 170/324/55
f 174/332/56 172/326/56 171/325/56
f 174/333/57 173/327/57 172/326/57
f 174/334/58 168/328/58 173/327/58
f 175/335/1 176/336/1 177/337/1
f 175/338/2 177/337/2 178/339/2
f 175/340/3 178/339/3 179/341/3
f 175/342/4 179/341/4 180/343/4
f 175/344/5 180/343/5 181/345/5
f 175/346/6 181/345/6 176/347/6
f 176/336/7 182/348/7 183/349/7 177/337/7
f 177/337/8 183/349/8 184/350/8 178/339/8
f 178/339/59 184/350/59 185/351/59 179/341/59
f 179/341/60 185/351/60 186/352/60 180/343/60
f 180/343/11 186/352/11 187/353/11 181/345/11
f 181/345/12 187/353/12 182/354/12 176/347/12
f 188/355/13 183/349/13 182/348/13
f 188/356/14 184/350/14 183/349/14
f 188/357/61 185/351/61 184/350/61
f 188/358/62 186/352/62 185/351/62
f 188/359/17 187/353/17 186/352/17
f 188/360/18 182/354/18 187/353/18
f 190/361/70 191/362/70 192/363/70 189/364/70
