# Blender v3.0.1 OBJ File: ''
# www.blender.org
mtllib tree2.mtl
o Tree_02_Mesh
v 24.552841 26.296701 20.393581
v 42.277683 5.128291 20.509375
v 24.552841 6.114184 1.674644
v 9.398130 6.114183 20.393579
v 27.122969 5.128291 35.664085
v 24.552841 -6.960940 20.393579
v 35.268841 22.859072 20.393581
v 18.490860 16.320005 9.677584
v 13.836843 22.859072 20.393581
v 24.552841 22.859070 31.109581
v 35.268841 -4.601815 20.393579
v 24.552841 -2.522228 9.677582
v 13.836843 -4.601815 20.393579
v 24.552841 -4.601816 31.109579
v 35.268841 6.114184 6.113356
v 13.836842 6.114184 6.113357
v 13.836843 6.114183 31.109579
v 37.838970 5.128291 31.225372
v -3.700424 32.371922 -1.766097
v 14.093481 5.679276 -1.766098
v -3.700422 5.679277 -16.479555
v -21.494328 5.679276 -1.766098
v -3.700424 5.679276 16.027803
v -3.700424 -9.672880 -1.766099
v 8.881765 25.340284 -1.766097
v -3.700424 26.701841 -14.348283
v -16.282612 25.340284 -1.766097
v -3.700424 25.340284 10.816092
v 8.881765 -6.902912 -1.766099
v -3.700424 -4.461166 -14.348284
v -16.282612 -6.902912 -1.766099
v -3.700424 -6.902913 10.816091
v 8.881765 5.679277 -14.348284
v -11.646145 15.000190 -12.197972
v -16.282612 5.679276 10.816091
v 8.881767 5.679276 10.816092
v 12.175552 19.168505 -20.931608
v 27.330263 -8.055386 -20.931608
v 12.175552 -8.055385 -36.086315
v -2.979158 -8.055386 -20.931608
v 12.175552 -8.055387 -5.776900
v 12.175552 -21.130510 -20.931608
v 22.891550 8.689501 -20.931608
v 12.175552 9.849112 -31.647604
v 1.459553 8.689501 -20.931608
v 12.175552 8.689500 -10.215611
v 22.891550 -18.771387 -20.931608
v 12.175552 -16.691795 -31.647604
v 1.459553 -18.771387 -20.931608
v 12.175552 -18.771387 -10.215611
v 22.891550 -8.055386 -31.647604
v 1.459553 -8.055386 -31.647604
v 1.459553 -8.055387 -10.215611
v 22.891550 -8.055387 -10.215611
v -32.246288 21.737036 1.944415
v -17.091583 -5.486857 1.944414
v -32.246288 -5.486857 -13.210295
v -47.400997 -5.486857 1.944414
v -32.246288 -5.486858 17.099123
v -32.246288 -18.561983 1.944413
v -21.530293 11.258029 1.944414
v -32.246288 12.417640 -8.771581
v -42.962284 11.258029 1.944414
v -32.246288 11.258028 12.660413
v -21.530293 -16.202856 1.944413
v -32.246288 -14.123270 -8.771583
v -42.962284 -16.202856 1.944413
v -32.246288 -16.202856 12.660411
v -21.530293 -5.486857 -8.771584
v -42.962284 -5.486857 -8.771584
v -42.962284 -5.486858 12.660412
v -21.530293 -5.486858 12.660412
v -3.410801 -53.562206 1.129335
v 1.241928 -53.562206 2.365798
v -2.190433 -53.562206 -3.584761
v 2.462294 -53.562206 -2.348298
v -6.891363 0.487460 -9.072989
v -2.355915 0.369166 4.423450
v -2.704750 1.901931 -4.330866
v -1.111523 1.837474 0.824646
v -3.410801 -49.117165 1.129335
v 1.241928 -49.117165 2.365798
v 2.462294 -49.117165 -2.348298
v -2.190433 -49.117165 -3.584761
v -3.410801 -44.672119 1.129335
v 1.241928 -44.672119 2.365799
v 2.462294 -44.672119 -2.348297
v -2.190433 -44.672119 -3.584761
v -5.535023 -40.227074 0.564823
v -0.882295 -40.227074 1.801285
v 0.338070 -40.227074 -2.912811
v -4.314657 -40.227074 -4.149273
v -5.535023 -35.782036 0.564823
v -0.882295 -35.782036 1.801285
v 0.338070 -35.782036 -2.912811
v -4.314657 -35.782036 -4.149273
v -5.535023 -31.336988 0.564823
v -0.882295 -31.336988 1.801285
v -1.498382 -25.465929 -3.400848
v -4.314657 -25.363619 -4.149272
v -8.152977 -21.761755 -2.937972
v -3.679508 -22.240931 1.504073
v 0.729677 -22.240931 -3.054216
v -3.743793 -21.761755 -7.496261
v -7.535713 -15.973490 -2.325042
v -3.062240 -16.452669 2.117003
v 1.346945 -16.452669 -2.441285
v -3.126526 -15.973490 -6.883330
v -6.240532 -10.645673 -2.412944
v -1.655598 -11.111093 1.913865
v 3.154377 -9.902135 -1.923728
v -1.371832 -9.781137 -6.359408
v -5.670452 -5.828553 -1.590147
v -1.108585 -5.934152 2.808668
v 2.628821 -3.541841 -1.055125
v -1.933046 -3.436246 -5.453940
v 19.651760 -0.994730 24.504328
v 20.853418 -1.150034 27.737013
v 24.916378 1.438864 23.157650
v 22.089594 1.011942 19.350094
v 10.287708 -4.169897 7.082361
v 6.909758 -6.591684 11.328073
v 6.079224 -8.662419 10.132032
v 11.491589 -7.502855 6.934469
v -29.317070 -1.811674 11.172979
v -29.271229 -0.987528 10.315125
v -30.148808 -1.112463 10.026501
v -30.194645 -1.936609 10.884356
v -24.391945 -7.678788 -2.540587
v -27.637310 -7.252755 -2.307963
v -27.663818 -10.505929 -2.211831
v -25.186123 -10.309392 -0.571410
v -24.518017 -7.576554 -2.233006
v -20.643490 -12.251184 -1.587870
v -22.979362 -13.631182 -2.172623
v -20.677906 -13.877996 -5.385360
v -20.912113 -11.799169 -5.473683
v -26.412102 -5.473527 2.175268
v -29.438259 -5.373399 1.733972
v -29.578903 -7.930085 4.390748
v -26.762455 -7.696362 5.142548
v -10.833496 -14.676176 -8.540059
v -16.722290 -14.114084 -2.350097
v -16.973804 -16.264750 -4.926402
v -13.554214 -15.888811 -7.403949
v 17.883646 -10.875160 -17.876120
v 17.917885 -11.150566 -18.826956
v 18.088827 -11.174221 -19.430593
v 17.741331 -9.709896 -20.349470
v 0.748867 -18.738951 -15.378749
v 4.294363 -20.990076 -16.148321
v 6.447441 -21.470156 -15.204246
v 8.388996 -19.410353 -14.432014
vt 0.396656 0.685578
vt 0.446996 0.621146
vt 0.432611 0.772366
vt 0.998226 0.150311
vt 0.933086 0.256088
vt 0.851213 0.196783
vt 0.532858 0.688229
vt 0.509207 0.773512
vt 0.346317 0.750009
vt 0.718607 0.556941
vt 0.761923 0.629868
vt 0.685351 0.629868
vt 0.843017 0.861407
vt 0.811313 0.930181
vt 0.820838 0.776307
vt 0.739351 0.860689
vt 0.332225 0.635238
vt 0.685351 0.808541
vt 0.542324 0.617519
vt 0.414211 0.617519
vt 0.542324 0.535533
vt 0.406668 0.515869
vt 0.406668 0.433882
vt 0.542324 0.453546
vt 0.996755 0.295872
vt 0.601920 0.883339
vt 0.521038 0.883339
vt 0.601920 0.802457
vt 0.460634 0.883339
vt 0.494136 0.802457
vt 0.602794 0.749555
vt 0.601920 0.964221
vt 0.687203 0.914690
vt 0.494136 0.964221
vt 0.682802 0.883339
vt 0.332225 0.535533
vt 0.332225 0.617519
vt 0.683676 0.783058
vt 0.332225 0.453546
vt 0.924584 0.608911
vt 0.992605 0.670157
vt 0.863338 0.676931
vt 0.511874 0.339689
vt 0.366441 0.339689
vt 0.366441 0.246618
vt 0.250496 0.439645
vt 0.101318 0.439645
vt 0.260827 0.344177
vt 0.101318 0.344177
vt 0.856563 0.547665
vt 0.172041 0.283889
vt 0.250496 0.248709
vt 0.101318 0.209165
vt 0.985830 0.540890
vt 0.806631 0.997064
vt 0.670690 0.997064
vt 0.670690 0.910067
vt 0.790094 0.325752
vt 0.644661 0.325752
vt 0.790094 0.232681
vt 0.644661 0.232681
vt 0.644661 0.139610
vt 0.511874 0.432759
vt 0.366441 0.432759
vt 0.930301 0.737687
vt 0.987059 0.674650
vt 0.993337 0.794445
vt 0.024377 0.344177
vt 0.005850 0.439645
vt 0.273370 0.339689
vt 0.867264 0.680928
vt 0.005850 0.248709
vt 0.873542 0.800723
vt 0.551591 0.232681
vt 0.551591 0.325752
vt 0.583693 0.997064
vt 0.273370 0.432759
vt 0.505198 0.260858
vt 0.433778 0.232003
vt 0.471190 0.162161
vt 0.319653 0.185893
vt 0.349161 0.112858
vt 0.994127 0.404788
vt 0.851213 0.381899
vt 0.898991 0.324959
vt 0.741916 0.417831
vt 0.750992 0.521828
vt 0.688407 0.473241
vt 0.946769 0.268020
vt 0.659566 0.616502
vt 0.602903 0.561783
vt 0.301347 0.913274
vt 0.219731 0.996736
vt 0.219731 0.913274
vt 0.546240 0.507064
vt 0.089313 0.996736
vt 0.089313 0.913274
vt 0.219731 0.829811
vt 0.089313 0.829811
vt 0.290145 0.258929
vt 0.902635 0.918687
vt 0.902635 0.996861
vt 0.824461 0.918687
vt 0.853101 0.286453
vt 0.824461 0.996861
vt 0.246618 0.156385
vt 0.980810 0.918687
vt 0.548185 0.618446
vt 0.980810 0.996861
vt 0.902635 0.840512
vt 0.005850 0.913274
vt 0.005850 0.996736
vt 0.005850 0.829811
vt 0.297320 0.735573
vt 0.216816 0.735573
vt 0.225724 0.653248
vt 0.088175 0.735573
vt 0.088175 0.653248
vt 0.219764 0.130750
vt 0.082596 0.212846
vt 0.082596 0.130750
vt 0.291161 0.130750
vt 0.210880 0.048654
vt 0.082596 0.048654
vt 0.993146 0.535505
vt 0.858392 0.508376
vt 0.909862 0.455078
vt 0.291939 0.557490
vt 0.212921 0.638295
vt 0.212921 0.557490
vt 0.961331 0.401780
vt 0.086655 0.638295
vt 0.086655 0.557490
vt 0.216816 0.817897
vt 0.086655 0.476685
vt 0.088175 0.817897
vt 0.776491 0.701585
vt 0.728151 0.755272
vt 0.722803 0.653245
vt 0.016432 0.130750
vt 0.000500 0.212846
vt 0.005850 0.735573
vt 0.830178 0.749925
vt 0.856563 0.403608
vt 0.000500 0.048654
vt 0.824831 0.647898
vt 0.005850 0.557490
vt 0.005850 0.638295
vt 0.005850 0.817897
vt 0.828347 0.338293
vt 0.797709 0.330362
vt 0.805745 0.300122
vt 0.836384 0.308054
vt 0.930015 0.849031
vt 0.835162 0.817155
vt 0.860454 0.808410
vt 0.896687 0.819607
vt 0.578343 0.041525
vt 0.589988 0.009530
vt 0.620556 0.020655
vt 0.608910 0.052651
vt 0.651123 0.031781
vt 0.639478 0.063777
vt 0.676374 0.057514
vt 0.664728 0.089510
vt 0.706941 0.068640
vt 0.695296 0.100636
vt 0.737509 0.079766
vt 0.725863 0.111761
vt 0.793059 0.121768
vt 0.785157 0.153730
vt 0.834408 0.132011
vt 0.826507 0.163973
vt 0.874662 0.135707
vt 0.866386 0.168402
vt 0.911631 0.144903
vt 0.900940 0.176539
vt 0.349022 0.808105
vt 0.348276 0.777018
vt 0.392822 0.765607
vt 0.393658 0.860987
vt 0.203815 0.040539
vt 0.217035 0.007819
vt 0.247887 0.020285
vt 0.234667 0.053005
vt 0.278740 0.032750
vt 0.265520 0.065470
vt 0.311175 0.041297
vt 0.297955 0.074017
vt 0.342027 0.053762
vt 0.328808 0.086482
vt 0.414998 0.079304
vt 0.359660 0.098947
vt 0.436411 0.090754
vt 0.423628 0.122392
vt 0.474867 0.111240
vt 0.462085 0.142878
vt 0.518882 0.133202
vt 0.499729 0.156448
vt 0.551591 0.430595
vt 0.553374 0.388382
vt 0.585662 0.383031
vt 0.573055 0.420307
vt 0.533152 0.177176
vt 0.560592 0.157067
vt 0.592658 0.185199
vt 0.572375 0.206060
vt 0.503437 0.663945
vt 0.507718 0.633484
vt 0.536819 0.637574
vt 0.532538 0.668034
vt 0.565920 0.641664
vt 0.561639 0.672124
vt 0.596975 0.631847
vt 0.592694 0.662307
vt 0.626076 0.635937
vt 0.621795 0.666397
vt 0.694283 0.645523
vt 0.691022 0.663866
vt 0.559147 0.008122
vt 0.571888 0.005850
vt 0.556864 0.019750
vt 0.557619 0.012378
vt 0.452193 0.061266
vt 0.490650 0.081752
vt 0.532161 0.102754
vt 0.573661 0.126831
vt 0.607563 0.149596
vt 0.005850 0.031955
vt 0.005850 0.000500
vt 0.035510 0.000500
vt 0.035510 0.031955
vt 0.065170 0.000500
vt 0.065170 0.031955
vt 0.094829 0.004267
vt 0.094829 0.035722
vt 0.124489 0.004267
vt 0.124489 0.035722
vt 0.154149 0.004267
vt 0.194006 0.035722
vt 0.335053 0.965160
vt 0.297773 0.992698
vt 0.331690 0.925286
vt 0.356600 0.947715
vt 0.123559 0.483049
vt 0.126332 0.477312
vt 0.130807 0.481195
vt 0.128035 0.486932
vt 0.389531 0.918154
vt 0.364621 0.895726
vt 0.399040 0.872215
vt 0.430943 0.892097
vt 0.426764 0.847900
vt 0.460048 0.853396
vt 0.451995 0.806008
vt 0.482843 0.819313
vt 0.999500 0.005850
vt 0.997560 0.014503
vt 0.927179 0.088117
vt 0.910860 0.088646
vt 0.635114 0.326874
vt 0.778137 0.327853
vt 0.784226 0.368986
vt 0.628121 0.368996
vt 0.534977 0.311466
vt 0.527263 0.339091
vt 0.510694 0.201413
vt 0.533413 0.211786
vt 0.699483 0.415981
vt 0.703068 0.378708
vt 0.780104 0.375028
vt 0.780135 0.412128
vt 0.551591 0.373361
vt 0.552623 0.331579
vt 0.439671 0.777726
vt 0.501646 0.776796
vt 0.504116 0.784334
vt 0.450184 0.800104
vt 0.172581 0.523136
vt 0.184890 0.506009
vt 0.106461 0.444583
vt 0.106441 0.452425
vt 0.048259 0.472237
vt 0.048302 0.447930
vt 0.584203 0.743122
vt 0.583209 0.750102
vt 0.535540 0.745205
vt 0.537398 0.722803
vt 0.297656 0.433918
vt 0.341396 0.433882
vt 0.312690 0.480056
vt 0.253766 0.479616
vt 0.331051 0.864632
vt 0.352590 0.871621
vt 0.309819 0.849361
vt 0.800881 0.228148
vt 0.816300 0.231801
vt 0.821280 0.299528
vt 0.803960 0.276038
vt 0.819296 0.263429
vt 0.841357 0.300651
vt 0.841745 0.301773
vt 0.210409 0.139610
vt 0.243323 0.150473
vt 0.231284 0.160281
vt 0.187764 0.159721
vt 0.278721 0.762449
vt 0.295419 0.744205
vt 0.310286 0.804100
vt 0.301034 0.817035
vt 0.249190 0.515368
vt 0.201263 0.533567
vt 0.217966 0.518580
vt 0.231198 0.495418
vt 0.215836 0.517732
vt 0.020837 0.482798
vt 0.005850 0.467444
vt 0.676507 0.728983
vt 0.636191 0.752095
vt 0.631847 0.732485
vt 0.666342 0.712103
vt 0.408358 0.797601
vt 0.407130 0.776307
vt 0.495577 0.294156
vt 0.466556 0.299474
vt 0.417831 0.273370
vt 0.449044 0.277799
vt 0.475833 0.008584
vt 0.487964 0.019720
vt 0.222073 0.171713
vt 0.232155 0.188415
vt 0.134888 0.206164
vt 0.128909 0.191604
vt 0.397357 0.953491
vt 0.405937 0.984244
vt 0.546240 0.678823
vt 0.644548 0.696250
vt 0.610872 0.741043
vt 0.546880 0.724710
vt 0.539285 0.988919
vt 0.533799 0.998959
vt 0.532954 0.997956
vt 0.415658 0.997908
vt 0.710593 0.663949
vt 0.722825 0.677201
vn 0.2097 0.6536 -0.7272
vn 0.8558 0.3357 -0.3936
vn 0.2270 0.6320 -0.7410
vn 0.2772 0.6894 -0.6692
vn -0.2486 0.7751 -0.5809
vn -0.3427 0.4452 -0.8273
vn -0.6433 0.4968 -0.5825
vn -0.9257 0.2454 -0.2877
vn -0.2921 0.9107 0.2921
vn -0.8974 0.2379 0.3717
vn -0.6442 0.4123 0.6442
vn -0.3050 0.1952 0.9321
vn 0.2921 0.9107 0.2921
vn 0.3673 0.2810 0.8867
vn 0.6236 0.4714 0.6236
vn 0.8671 0.3451 0.3592
vn 0.1993 -0.9053 -0.3750
vn 0.2907 -0.6503 -0.7018
vn 0.4066 -0.7308 -0.5484
vn 0.7460 -0.5326 -0.3997
vn -0.1993 -0.9053 -0.3750
vn -0.8880 -0.3678 -0.2760
vn -0.4066 -0.7308 -0.5484
vn -0.2907 -0.6503 -0.7018
vn -0.2102 -0.9548 0.2102
vn -0.3280 -0.3280 0.8859
vn -0.5774 -0.5774 0.5773
vn -0.8629 -0.3574 0.3574
vn 0.2102 -0.9548 0.2102
vn 0.7675 -0.5566 0.3179
vn 0.5066 -0.6977 0.5066
vn 0.3376 -0.4707 0.8151
vn 0.4540 0.8123 -0.3661
vn 0.8974 0.2379 -0.3717
vn 0.6692 0.4005 -0.6259
vn 0.1662 0.0995 -0.9811
vn -0.4540 0.8123 -0.3661
vn -0.3855 0.0931 -0.9180
vn -0.6822 0.3447 -0.6449
vn -0.7980 0.2115 -0.5643
vn -0.4385 0.7846 0.4385
vn -0.3717 0.2379 0.8974
vn 0.4385 0.7846 0.4385
vn 0.3717 0.2379 0.8974
vn 0.6442 0.4123 0.6442
vn 0.8974 0.2379 0.3717
vn 0.1635 -0.2029 -0.9654
vn 0.4951 -0.6143 -0.6143
vn 0.8629 -0.3574 -0.3574
vn -0.5874 -0.2433 -0.7719
vn -0.6740 -0.1965 -0.7121
vn -0.6094 -0.1631 -0.7759
vn -0.3574 -0.3574 0.8629
vn -0.5774 -0.5774 0.5774
vn 0.8629 -0.3574 0.3574
vn 0.5774 -0.5774 0.5774
vn 0.3574 -0.3574 0.8629
vn 0.5937 0.6072 -0.5280
vn 0.3730 0.2233 -0.9006
vn -0.5937 0.6072 -0.5280
vn -0.3730 0.2233 -0.9006
vn -0.6692 0.4005 -0.6259
vn -0.8974 0.2379 -0.3717
vn -0.5730 0.5860 0.5730
vn 0.5730 0.5860 0.5730
vn 0.3457 -0.4289 -0.8346
vn -0.8629 -0.3574 -0.3574
vn -0.4951 -0.6143 -0.6143
vn -0.3457 -0.4289 -0.8346
vn 0.0000 -1.0000 -0.0000
vn -0.4896 0.8553 0.1693
vn -0.2568 -0.0000 0.9665
vn -0.3822 0.0090 0.9240
vn -0.4095 0.0110 0.9122
vn -0.6141 0.0107 0.7892
vn -0.6347 0.0083 0.7727
vn -0.6910 0.1000 0.7159
vn -0.6926 0.0906 0.7156
vn -0.6872 0.0643 0.7236
vn -0.6860 0.0803 0.7232
vn -0.8094 -0.0024 0.5873
vn -0.8151 0.0000 0.5793
vn -0.8906 0.0366 0.4532
vn 0.9681 -0.0000 0.2506
vn 0.9426 0.2278 0.2440
vn 0.9427 0.2274 0.2440
vn 0.9790 0.0636 0.1935
vn 0.9437 0.0624 0.3249
vn 0.9753 0.1079 0.1928
vn 0.8219 -0.0665 0.5658
vn 0.8282 -0.0610 0.5571
vn 0.6920 -0.1759 0.7001
vn 0.6940 -0.1731 0.6989
vn 0.6739 -0.2009 0.7110
vn -0.3746 0.9097 0.1793
vn 0.7831 0.1541 0.6025
vn 0.2568 0.0000 -0.9665
vn 0.9733 0.2120 0.0877
vn 0.7046 -0.0000 -0.7096
vn 0.7001 -0.0622 -0.7114
vn 0.6990 -0.0728 -0.7114
vn 0.6983 0.0002 -0.7158
vn 0.6982 0.0236 -0.7155
vn 0.7349 0.3079 -0.6043
vn 0.7330 0.2997 -0.6106
vn 0.7539 0.4512 -0.4776
vn -0.9681 0.0000 -0.2506
vn -0.9427 -0.2274 -0.2440
vn -0.9426 -0.2278 -0.2440
vn -0.9398 -0.0786 -0.3326
vn -0.7065 -0.3700 -0.6032
vn -0.6164 -0.4365 -0.6554
vn -0.3123 0.6933 0.6494
vn -0.6717 0.2048 -0.7120
vn -0.6807 0.1644 -0.7139
vn -0.6828 0.1536 -0.7142
vn -0.4632 -0.0543 -0.8846
vn -0.1547 -0.2297 -0.9609
vn 0.2960 -0.4181 -0.8588
vn -0.7666 0.3592 0.5323
vn 0.4253 -0.9012 0.0838
vn 0.7132 0.1194 -0.6907
vn -0.4893 0.8658 0.1052
vn -0.2593 0.9131 0.3145
vn -0.7236 -0.0608 0.6875
vn 0.2507 -0.9673 0.0386
vn 0.7036 0.1971 -0.6827
vn 0.9556 0.1741 0.2377
vn 0.0794 0.8870 -0.4549
vn -0.9970 -0.0221 -0.0741
vn -0.1167 -0.7352 0.6677
vn 0.1716 0.9786 0.1132
vn 0.0488 -0.0976 -0.9940
vn -0.4133 -0.7607 -0.5005
vn -0.2402 -0.3391 0.9096
vn 0.2980 0.1193 0.9471
vn -0.5530 -0.8277 0.0957
vn -0.4420 -0.0482 -0.8957
vn 0.5657 0.7387 -0.3666
vn 0.0963 0.9175 -0.3860
vn -0.9518 -0.1085 -0.2869
vn -0.0896 -0.9267 0.3650
vn 0.9536 0.0762 0.2914
vn 0.3614 0.9125 0.1916
vn -0.0291 -0.6548 0.7552
vn -0.4400 -0.7713 -0.4599
vn -0.3116 -0.1155 -0.9432
vn 0.7178 -0.6294 0.2979
vn 0.0020 -0.9438 -0.3305
vn -0.5832 -0.5568 -0.5915
vn -0.0302 0.9615 0.2732
vn -0.1441 -0.1900 -0.9712
vn 0.3552 -0.6695 -0.6524
vn 0.6908 -0.6994 0.1833
vn -0.1811 0.6335 0.7523
usemtl Light_Leaves
s 1
f 1/1/1 7/2/1 8/3/1
f 7/4/2 2/5/2 15/6/2
f 7/2/3 15/7/3 8/3/3
f 8/3/4 15/7/4 3/8/4
f 1/1/5 8/3/5 9/9/5
f 8/10/6 3/11/6 16/12/6
f 8/13/7 16/14/7 9/15/7
f 9/15/8 16/14/8 4/16/8
f 1/1/9 9/9/9 10/17/9
f 9/15/10 4/16/10 17/18/10
f 9/19/11 17/20/11 10/21/11
f 10/21/12 17/20/12 5/22/12
f 1/1/13 10/17/13 7/2/13
f 10/21/14 5/22/14 18/23/14
f 10/21/15 18/23/15 7/24/15
f 7/4/16 18/25/16 2/5/16
f 6/26/17 12/27/17 11/28/17
f 12/27/18 3/29/18 15/30/18
f 12/27/19 15/30/19 11/28/19
f 11/28/20 15/30/20 2/31/20
f 6/26/21 13/32/21 12/27/21
f 13/33/22 4/16/22 16/14/22
f 13/32/23 16/34/23 12/27/23
f 12/27/24 16/34/24 3/29/24
f 6/26/25 14/35/25 13/32/25
f 14/36/26 5/22/26 17/20/26
f 14/36/27 17/20/27 13/37/27
f 13/33/28 17/18/28 4/16/28
f 6/26/29 11/28/29 14/35/29
f 11/28/30 2/31/30 18/38/30
f 11/39/31 18/23/31 14/36/31
f 14/36/32 18/23/32 5/22/32
f 19/40/33 25/41/33 26/42/33
f 25/43/34 20/44/34 33/45/34
f 25/46/35 33/47/35 26/48/35
f 26/48/36 33/47/36 21/49/36
f 19/40/37 26/42/37 27/50/37
f 26/48/38 21/49/38 34/51/38
f 26/48/39 34/51/39 27/52/39
f 27/52/40 34/51/40 22/53/40
f 19/40/41 27/50/41 28/54/41
f 27/55/10 22/56/10 35/57/10
f 27/58/11 35/59/11 28/60/11
f 28/60/42 35/59/42 23/61/42
f 19/40/43 28/54/43 25/41/43
f 28/60/44 23/61/44 36/62/44
f 28/63/45 36/64/45 25/43/45
f 25/43/46 36/64/46 20/44/46
f 24/65/17 30/66/17 29/67/17
f 30/68/47 21/49/47 33/47/47
f 30/68/48 33/47/48 29/69/48
f 29/70/49 33/45/49 20/44/49
f 24/65/21 31/71/21 30/66/21
f 31/72/50 22/53/50 34/51/50
f 31/72/51 34/51/51 30/68/51
f 30/68/52 34/51/52 21/49/52
f 24/65/25 32/73/25 31/71/25
f 32/74/53 23/61/53 35/59/53
f 32/74/54 35/59/54 31/75/54
f 31/76/28 35/57/28 22/56/28
f 24/65/29 29/67/29 32/73/29
f 29/70/55 20/44/55 36/64/55
f 29/70/56 36/64/56 32/77/56
f 32/74/57 36/62/57 23/61/57
f 37/78/58 43/79/58 44/80/58
f 43/79/34 38/81/34 51/82/34
f 43/79/35 51/82/35 44/80/35
f 44/83/59 51/84/59 39/85/59
f 37/86/60 44/87/60 45/88/60
f 44/83/61 39/85/61 52/89/61
f 44/87/62 52/90/62 45/88/62
f 45/88/63 52/90/63 40/91/63
f 37/92/64 45/93/64 46/94/64
f 45/88/10 40/91/10 53/95/10
f 45/93/11 53/96/11 46/94/11
f 46/94/42 53/96/42 41/97/42
f 37/92/65 46/94/65 43/98/65
f 46/94/44 41/97/44 54/99/44
f 46/94/45 54/99/45 43/98/45
f 43/79/46 54/100/46 38/81/46
f 42/101/17 48/102/17 47/103/17
f 48/104/66 39/85/66 51/84/66
f 48/102/48 51/105/48 47/103/48
f 47/106/49 51/82/49 38/81/49
f 42/101/21 49/107/21 48/102/21
f 49/108/67 40/91/67 52/90/67
f 49/107/68 52/109/68 48/102/68
f 48/104/69 52/89/69 39/85/69
f 42/101/25 50/110/25 49/107/25
f 50/111/53 41/97/53 53/96/53
f 50/111/54 53/96/54 49/112/54
f 49/108/28 53/95/28 40/91/28
f 42/101/29 47/103/29 50/110/29
f 47/106/55 38/81/55 54/100/55
f 47/113/56 54/99/56 50/111/56
f 50/111/57 54/99/57 41/97/57
f 55/114/58 61/115/58 62/116/58
f 61/115/34 56/117/34 69/118/34
f 61/115/35 69/118/35 62/116/35
f 62/119/59 69/120/59 57/121/59
f 55/122/60 62/119/60 63/123/60
f 62/119/61 57/121/61 70/124/61
f 62/119/62 70/124/62 63/123/62
f 63/125/63 70/126/63 58/127/63
f 55/128/64 63/129/64 64/130/64
f 63/125/10 58/127/10 71/131/10
f 63/129/11 71/132/11 64/130/11
f 64/130/42 71/132/42 59/133/42
f 55/114/65 64/134/65 61/115/65
f 64/130/44 59/133/44 72/135/44
f 64/134/45 72/136/45 61/115/45
f 61/115/46 72/136/46 56/117/46
f 60/137/17 66/138/17 65/139/17
f 66/140/66 57/121/66 69/120/66
f 66/140/48 69/120/48 65/141/48
f 65/142/49 69/118/49 56/117/49
f 60/137/21 67/143/21 66/138/21
f 67/144/67 58/127/67 70/126/67
f 67/145/68 70/124/68 66/140/68
f 66/140/69 70/124/69 57/121/69
f 60/137/25 68/146/25 67/143/25
f 68/147/53 59/133/53 71/132/53
f 68/147/54 71/132/54 67/148/54
f 67/144/28 71/131/28 58/127/28
f 60/137/29 65/139/29 68/146/29
f 65/142/55 56/117/55 72/136/55
f 65/142/56 72/136/56 68/149/56
f 68/147/57 72/135/57 59/133/57
usemtl Wood
f 73/150/70 75/151/70 76/152/70 74/153/70
f 77/154/71 78/155/71 80/156/71 79/157/71
f 73/158/72 74/159/72 82/160/72 81/161/72
f 81/161/72 82/160/72 86/162/72 85/163/72
f 85/163/72 86/162/72 90/164/72 89/165/72
f 89/165/72 90/164/72 94/166/72 93/167/72
f 93/167/72 94/166/72 98/168/73 97/169/74
f 97/169/74 98/168/73 102/170/75 101/171/76
f 101/171/76 102/170/75 106/172/77 105/173/78
f 105/173/78 106/172/77 110/174/79 109/175/80
f 109/175/80 110/174/79 114/176/81 113/177/82
f 113/178/82 114/179/81 78/180/83 77/181/83
f 74/182/84 76/183/84 83/184/84 82/185/84
f 82/185/84 83/184/84 87/186/85 86/187/86
f 86/187/86 87/186/85 91/188/86 90/189/85
f 90/189/85 91/188/86 95/190/87 94/191/87
f 94/191/87 95/190/87 99/192/88 98/193/89
f 98/193/89 99/192/88 103/194/90 102/195/91
f 102/195/91 103/194/90 107/196/92 106/197/93
f 106/197/93 107/196/92 111/198/94 110/199/94
f 118/200/95 119/201/95 120/202/95 117/203/95
f 114/204/96 115/205/96 80/206/96 78/207/96
f 76/208/97 75/209/97 84/210/97 83/211/97
f 83/211/97 84/210/97 88/212/97 87/213/97
f 87/213/97 88/212/97 92/214/97 91/215/97
f 91/215/97 92/214/97 96/216/97 95/217/97
f 95/217/97 96/216/97 100/218/97 99/219/97
f 148/220/98 149/221/98 146/222/98 147/223/98
f 103/194/99 104/224/99 108/225/100 107/196/101
f 107/196/101 108/225/100 112/226/102 111/198/103
f 111/198/103 112/226/102 116/227/104 115/205/105
f 115/205/105 116/227/104 79/228/106 80/206/106
f 75/229/107 73/230/107 81/231/107 84/232/107
f 84/232/107 81/231/107 85/233/108 88/234/109
f 88/234/109 85/233/108 89/235/109 92/236/108
f 92/236/108 89/235/109 93/237/107 96/238/107
f 96/238/107 93/237/107 97/239/110 100/240/111
f 100/241/111 97/242/110 101/243/112 104/244/112
f 128/245/113 125/246/113 126/247/113 127/248/113
f 108/249/114 105/250/114 109/251/115 112/252/116
f 112/252/116 109/251/115 113/253/117 116/254/118
f 116/254/118 113/253/117 77/255/119 79/256/119
f 118/257/120 117/258/120 122/259/120 123/260/120
f 124/261/121 119/262/121 118/263/121 123/264/121
f 120/265/122 119/266/122 124/267/122 121/268/122
f 122/269/123 117/203/123 120/202/123 121/270/123
f 121/270/124 115/271/124 114/272/124 122/269/124
f 114/176/125 110/174/125 123/260/125 122/259/125
f 123/264/126 110/273/126 111/274/126 124/261/126
f 111/198/127 115/205/127 121/268/127 124/267/127
f 138/275/128 126/276/128 125/277/128 141/278/128
f 139/279/129 127/248/129 126/247/129 138/280/129
f 128/281/130 127/282/130 139/283/130 140/284/130
f 125/285/131 128/286/131 140/287/131 141/288/131
f 105/289/132 108/290/132 142/291/132 143/292/132
f 108/249/133 104/244/133 145/293/133 142/294/133
f 104/244/134 101/243/134 144/295/134 145/293/134
f 144/296/135 101/171/135 105/173/135 143/297/135
f 132/298/136 135/299/136 134/300/136 129/301/136 133/302/136
f 135/303/137 132/304/137 131/305/137 136/306/137
f 131/307/138 130/308/138 137/309/138 136/310/138
f 137/311/139 130/312/139 129/313/139 134/314/139
f 130/312/140 139/279/140 138/280/140 133/315/140 129/313/140
f 130/316/141 131/317/141 140/284/141 139/283/141
f 140/318/142 131/319/142 132/320/142 141/321/142
f 132/322/143 133/323/143 138/275/143 141/278/143
f 137/311/144 134/314/144 143/292/144 142/291/144
f 143/297/145 134/300/145 135/299/145 144/296/145
f 135/324/146 136/325/146 145/326/146 144/327/146
f 136/310/147 137/309/147 142/294/147 145/293/147
f 103/194/148 99/192/148 152/328/148 153/329/148
f 99/330/149 100/331/149 151/332/149 152/333/149
f 104/244/150 150/334/150 151/335/150 100/241/150
f 103/336/151 153/337/151 150/338/151 104/339/151
f 149/340/152 148/341/152 151/335/152 150/334/152
f 148/341/153 147/342/153 152/343/153 151/335/153
f 147/223/154 146/222/154 153/329/154 152/328/154
f 153/337/155 146/344/155 149/345/155 150/338/155
