# Blender v3.0.1 OBJ File: ''
# www.blender.org
mtllib large_rock.mtl
o Large_Rock_Mesh.010
v -1.019430 3.865982 3.712419
v 3.430848 0.832542 -4.954892
v -8.981645 3.185699 -3.706186
v -11.769595 5.647417 3.153839
v -8.543733 6.104816 5.561268
v -0.755812 6.113361 8.787128
v 7.032107 5.581562 10.941761
v 11.418686 1.855015 4.836199
v 1.484336 0.451569 0.193231
v -1.193718 0.301544 -6.932049
v -1.019430 3.700287 3.712419
v -0.840395 -0.939053 -12.242781
v -9.651590 0.398302 -5.725802
v -11.331944 2.530643 -1.044377
v -12.207505 0.153912 5.024717
v -2.983153 1.596027 9.290997
v 4.575136 -3.213579 7.989357
v 11.903485 -0.704197 5.425050
v 11.361841 0.871508 0.923601
v -0.840385 -0.939053 -12.242781
v -1.193725 -5.676716 -3.896294
v -0.840395 -1.428303 -12.235094
v -7.895885 -3.702826 -4.894339
v -11.324258 2.041393 -1.044376
v -12.202070 -0.335339 5.019282
v -2.983153 1.106777 9.283310
v 4.569702 -3.702827 7.983921
v 11.895799 -1.193447 5.425050
v 10.167960 -1.428303 -7.675283
v -0.840385 -1.428303 -12.235094
v -1.193725 -6.165966 -3.896294
vt 0.643578 0.281518
vt 0.407271 0.302935
vt 0.548705 0.034052
vt 0.729038 0.033684
vt 0.753969 0.128486
vt 0.755760 0.333767
vt 0.733363 0.529275
vt 0.555481 0.572623
vt 0.541273 0.305948
vt 0.404816 0.180474
vt 0.752753 0.442348
vt 0.894230 0.656208
vt 0.750423 0.445331
vt 0.000500 0.000500
vt 0.004983 0.001786
vt 0.015332 0.258562
vt 0.281676 0.140003
vt 0.509213 0.000500
vt 0.630250 0.005266
vt 0.418514 0.928078
vt 0.495600 0.824245
vt 0.554383 0.974350
vt 0.407201 0.987620
vt 0.782524 0.079759
vt 0.934008 0.000500
vt 0.883071 0.223158
vt 0.769025 0.269807
vt 0.987551 0.415826
vt 0.768713 0.460778
vt 0.913803 0.590391
vt 0.852173 0.574192
vt 0.564355 0.588942
vt 0.467653 0.535646
vt 0.281676 0.140003
vt 0.972378 0.753226
vt 0.755510 0.721125
vt 0.199677 0.280422
vt 0.006722 0.469508
vt 0.666238 0.718503
vt 0.678866 0.722606
vt 0.678402 0.923779
vt 0.557831 0.934700
vt 0.649770 0.729025
vt 0.507700 0.824245
vt 0.548338 0.708461
vt 0.566483 0.974216
vt 0.945939 0.001468
vt 0.895011 0.223993
vt 0.999500 0.416528
vt 0.925756 0.591038
vt 0.220976 0.035647
vt 0.232191 0.036039
vt 0.227088 0.336504
vt 0.181256 0.137565
vt 0.284382 0.430241
vt 0.281850 0.140073
vt 0.965359 0.761925
vt 0.748629 0.729932
vt 0.212915 0.284219
vt 0.020020 0.473096
vt 0.323140 0.698397
vt 0.370802 0.537184
vt 0.526789 0.735870
vt 0.288053 0.439662
vt 0.142111 0.397159
vt 0.005521 0.608927
vt 0.011366 0.798973
vt 0.048937 0.987797
vt 0.376753 0.990580
vt 0.526789 0.735870
vn 0.1554 0.9546 -0.2543
vn 0.1711 0.9474 -0.2705
vn 0.1695 0.9004 -0.4007
vn 0.1700 0.9010 -0.3990
vn 0.1679 0.8988 -0.4050
vn 0.1674 0.8982 -0.4065
vn 0.1814 0.8921 -0.4137
vn 0.1737 0.8971 -0.4063
vn 0.1751 0.8962 -0.4077
vn 0.1816 0.8920 -0.4139
vn 0.1797 0.7668 -0.6162
vn 0.6360 0.7286 -0.2544
vn -0.9999 -0.0000 0.0164
vn 0.8896 0.0000 0.4568
vn -0.0040 0.8989 -0.4382
vn -0.6945 0.5346 -0.4816
vn -0.9374 0.1769 0.3000
vn -0.4087 0.2272 0.8839
vn -0.1048 -0.1441 0.9840
vn 0.5566 -0.2609 0.7887
vn 0.2255 0.9441 -0.2406
vn 0.0276 0.9928 -0.1162
vn -0.9999 -0.0050 -0.0098
vn 0.8162 -0.5523 0.1697
vn -0.6014 -0.3604 -0.7130
vn -0.9047 -0.3818 -0.1892
vn -0.9889 -0.0124 -0.1478
vn -0.4179 -0.0145 0.9084
vn 0.1609 -0.0141 0.9869
vn 0.3330 -0.0097 0.9429
vn 0.9912 -0.0267 -0.1298
vn 0.1766 0.9287 -0.3260
vn -0.9991 -0.0003 -0.0425
vn 0.9991 0.0003 0.0425
vn -0.2363 -0.8405 -0.4875
vn -0.3412 -0.6553 0.6739
vn -0.6466 -0.6738 -0.3577
vn -0.0816 -0.8773 0.4730
vn -0.4478 -0.8072 0.3846
vn 0.3342 -0.9419 0.0332
vn 0.3753 -0.9263 -0.0329
vn 0.1979 -0.8558 -0.4779
usemtl Stones
s 1
f 1/1/1 2/2/1 3/3/1
f 1/1/2 3/3/2 4/4/2
f 1/1/3 4/4/4 5/5/5
f 1/1/3 5/5/5 6/6/6
f 1/1/7 6/6/8 7/7/9
f 1/1/7 7/7/9 8/8/10
f 1/1/11 8/8/11 9/9/11
f 1/1/12 9/9/12 10/10/12
f 1/11/13 10/12/13 11/13/13
f 1/14/14 11/15/14 2/16/14
f 2/2/15 12/17/15 13/18/15 3/3/15
f 3/3/16 13/18/16 14/19/16 4/4/16
f 4/20/17 14/21/17 15/22/17 5/23/17
f 5/24/18 15/25/18 16/26/18 6/27/18
f 6/27/19 16/26/19 17/28/19 7/29/19
f 7/29/20 17/28/20 18/30/20 8/31/20
f 8/8/21 18/32/21 19/33/21 9/9/21
f 9/9/22 19/33/22 20/34/22 10/10/22
f 10/12/23 20/35/23 21/36/23 11/13/23
f 21/37/24 12/38/24 2/16/24 11/15/24
f 12/39/25 22/40/25 23/41/25 13/42/25
f 23/43/26 24/44/26 14/21/26 13/45/26
f 14/21/27 24/44/27 25/46/27 15/22/27
f 15/25/28 25/47/28 26/48/28 16/26/28
f 16/26/29 26/48/29 27/49/29 17/28/29
f 17/28/30 27/49/30 28/50/30 18/30/30
f 18/51/31 28/52/31 29/53/31 19/54/31
f 19/33/32 29/55/32 30/56/32 20/34/32
f 20/35/33 30/57/33 31/58/33 21/36/33
f 21/37/34 31/59/34 22/60/34 12/38/34
f 31/61/35 23/62/35 22/63/35
f 31/61/36 24/64/36 23/62/36
f 31/61/37 25/65/37 24/64/37
f 31/61/38 26/66/38 25/65/38
f 31/61/39 27/67/39 26/66/39
f 31/61/40 28/68/40 27/67/40
f 31/61/41 29/69/41 28/68/41
f 31/61/42 30/70/42 29/69/42
