# Blender v3.0.1 OBJ File: ''
# www.blender.org
mtllib pine.mtl
o Pine_Tree_Mesh.002
v 2.978744 13.626053 -2.256326
v 2.978742 12.690080 -36.097469
v -26.328543 12.690080 -19.176899
v -26.328543 12.690079 14.664245
v 2.978744 12.690078 31.584814
v 32.286026 12.690078 14.664248
v 32.286037 12.690079 -19.176884
v 6.621913 -33.916096 -55.222996
v -47.859383 -33.666996 -30.856306
v -51.808434 -37.829880 29.375063
v 2.192449 -39.937572 60.120510
v 46.214191 -34.709560 29.375074
v 52.088120 -37.829880 -23.620607
v 2.978744 12.850632 -2.256326
v 2.978744 43.656006 -2.256325
v 2.978743 42.865356 -30.842594
v -21.777691 42.865356 -16.549461
v -21.777691 42.865356 12.036810
v 2.978745 42.865356 26.329945
v 27.735172 42.865356 12.036813
v 27.735182 42.865356 -16.549448
v 6.056200 3.496217 -46.998299
v -39.965210 3.706652 -26.415283
v -43.301048 0.190170 24.463324
v 2.192453 -1.590227 50.297031
v 39.500565 2.825972 24.463333
v 42.133175 4.419357 -20.415039
v 2.978744 43.000992 -2.256325
v 2.978745 74.826813 -2.256324
v 2.978744 74.333496 -20.092600
v -12.467921 74.333496 -11.174463
v -12.467921 74.333496 6.661814
v 2.978745 74.333496 15.579951
v 18.425411 74.333496 6.661817
v 18.425417 74.333496 -11.174456
v 5.381927 37.459549 -39.498554
v -30.556150 30.965487 -23.425289
v -33.161106 34.877853 18.609028
v 2.192457 33.487534 38.588436
v 31.498602 36.936142 18.609035
v 31.562534 34.877853 -17.953346
v 2.978745 74.418121 -2.256324
v 2.941359 97.462112 -2.221933
v 2.941359 97.087158 -15.778934
v -8.799348 97.087158 -9.000433
v -8.799348 97.087158 4.556568
v 2.941360 97.087158 11.335068
v 14.682065 97.087158 4.556571
v 14.682070 97.087158 -9.000427
v 4.767971 69.059982 -30.529013
v -22.547850 64.123993 -18.312044
v -24.527824 67.097702 13.637409
v 2.155070 66.040939 28.610813
v 24.618744 68.662155 13.637414
v 24.667336 67.097702 -14.152930
v 2.941359 97.151474 -2.221933
v 2.952530 131.452835 -2.232198
v 2.952530 131.405411 -3.946384
v 1.468002 131.405411 -3.089291
v 1.468002 131.405411 -1.375105
v 2.952530 131.405411 -0.518013
v 4.437057 131.405411 -1.375105
v 4.437058 131.405411 -3.089290
v 4.233726 92.926910 -22.087065
v -14.925860 89.464752 -13.517962
v -16.314634 91.550552 8.891699
v 2.166233 90.809326 19.129658
v 18.157253 92.647873 8.891703
v 18.191338 91.550537 -10.600720
v 2.952530 131.413559 -2.232198
v 3.071984 -10.742706 -2.484609
v 3.071982 -11.814512 -41.236950
v -30.488520 -11.814512 -21.860779
v -30.488520 -11.814514 16.891562
v 3.071985 -11.814516 36.267727
v 36.632488 -11.814516 16.891565
v 36.632504 -11.814514 -21.860762
v 7.243868 -65.184410 -63.138073
v -55.144024 -64.899162 -35.235165
v -59.666183 -69.666176 33.737282
v 2.285696 -72.079750 69.073250
v 52.581978 -66.093018 33.737297
v 59.308361 -69.666176 -26.949381
v 3.071984 -11.630661 -2.484609
v -4.104926 -91.471016 -15.048233
v -22.250645 -91.471016 -10.083135
v 0.860173 -91.471016 3.097481
v -17.285543 -91.471016 8.062581
v -4.104926 -67.182983 -15.048232
v -22.250645 -67.182983 -10.083134
v -17.285543 -67.182983 8.062582
v 0.860173 -67.182983 3.097482
v -4.104925 -42.894958 -15.048231
v -22.250643 -42.894958 -10.083133
v -17.285542 -42.894958 8.062583
v 0.860174 -42.894958 3.097483
v 4.179579 -18.606941 -17.315067
v -13.966134 -18.606941 -12.349970
v -9.001034 -18.606941 5.795745
v 9.144683 -18.606941 0.830645
v 4.179580 5.681077 -17.315067
v -13.966134 5.681077 -12.349969
v -9.001034 5.681076 5.795746
v 9.144683 5.681076 0.830646
vt 0.579744 0.408933
vt 0.619367 0.340303
vt 0.658991 0.408933
vt 0.619367 0.477564
vt 0.540120 0.477564
vt 0.500496 0.408933
vt 0.540120 0.340303
vt 0.724850 0.859716
vt 0.734318 0.980840
vt 0.592728 0.980192
vt 0.648684 0.859716
vt 0.769523 0.350984
vt 0.790300 0.467143
vt 0.641271 0.467023
vt 0.686194 0.345157
vt 0.192486 0.684960
vt 0.259919 0.818663
vt 0.117005 0.824241
vt 0.114924 0.684960
vt 0.000500 0.810405
vt 0.037361 0.684960
vt 0.635916 0.566452
vt 0.667402 0.682004
vt 0.539331 0.685066
vt 0.554302 0.563602
vt 0.801016 0.859716
vt 0.852479 0.991011
vt 0.491413 0.142903
vt 0.564052 0.287711
vt 0.400764 0.259202
vt 0.666688 0.155159
vt 0.590100 0.000500
vt 0.440988 0.002923
vt 0.345157 0.115824
vt 0.882969 0.781769
vt 0.916440 0.723795
vt 0.949911 0.781769
vt 0.916440 0.839742
vt 0.849498 0.839742
vt 0.816027 0.781769
vt 0.849498 0.723795
vt 0.675113 0.233508
vt 0.683104 0.335736
vt 0.563602 0.335190
vt 0.610829 0.233508
vt 0.778734 0.587942
vt 0.796284 0.686063
vt 0.670397 0.685962
vt 0.708344 0.583019
vt 0.201398 0.553893
vt 0.258322 0.666757
vt 0.138004 0.671466
vt 0.135925 0.553893
vt 0.039335 0.659786
vt 0.070451 0.553893
vt 0.865026 0.335449
vt 0.894941 0.431839
vt 0.786901 0.428003
vt 0.796207 0.335449
vt 0.739397 0.233508
vt 0.776784 0.333339
vt 0.770079 0.108973
vt 0.703149 0.227945
vt 0.646126 0.100448
vt 0.844103 0.237187
vt 0.915673 0.111152
vt 0.844103 0.007793
vt 0.719772 0.000500
vt 0.954882 0.094924
vt 0.975766 0.058752
vt 0.996650 0.094924
vt 0.975766 0.131097
vt 0.933998 0.131097
vt 0.913114 0.094924
vt 0.933998 0.058752
vt 0.520099 0.581295
vt 0.423500 0.580838
vt 0.413118 0.485933
vt 0.522916 0.541013
vt 0.893788 0.588464
vt 0.786901 0.618658
vt 0.796544 0.515059
vt 0.893788 0.544504
vt 0.797616 0.719622
vt 0.825602 0.836168
vt 0.720021 0.836149
vt 0.751290 0.718395
vt 0.680106 0.789340
vt 0.728021 0.699523
vt 0.377105 0.544185
vt 0.409245 0.644791
vt 0.310886 0.650328
vt 0.329122 0.544185
vt 0.252925 0.643383
vt 0.305131 0.544185
vt 0.396291 0.356297
vt 0.334115 0.454793
vt 0.286905 0.349238
vt 0.457575 0.462444
vt 0.516258 0.358606
vt 0.457575 0.272530
vt 0.350187 0.272342
vt 0.901172 0.343525
vt 0.917046 0.316031
vt 0.932919 0.343525
vt 0.917046 0.371019
vt 0.885298 0.371019
vt 0.869425 0.343525
vt 0.885298 0.316031
vt 0.984720 0.213758
vt 0.911296 0.213411
vt 0.903405 0.141276
vt 0.986861 0.183140
vt 0.970084 0.279593
vt 0.888842 0.302543
vt 0.896171 0.223799
vt 0.970084 0.246180
vt 0.496802 0.587874
vt 0.538473 0.667328
vt 0.467779 0.670128
vt 0.465696 0.587874
vt 0.408264 0.663184
vt 0.434590 0.587874
vt 0.886142 0.631563
vt 0.910571 0.708031
vt 0.835810 0.712240
vt 0.849671 0.631563
vt 0.791756 0.706961
vt 0.831436 0.631563
vt 0.908908 0.913843
vt 0.861632 0.988735
vt 0.825736 0.908476
vt 0.955505 0.994552
vt 0.999500 0.916153
vt 0.955505 0.850150
vt 0.873852 0.850008
vt 0.198687 0.673874
vt 0.200694 0.670397
vt 0.202702 0.673874
vt 0.200694 0.677350
vt 0.196680 0.677350
vt 0.194673 0.673874
vt 0.196680 0.670397
vt 0.777229 0.569929
vt 0.677620 0.569767
vt 0.670397 0.519913
vt 0.777364 0.566090
vt 0.897304 0.484474
vt 0.791756 0.484407
vt 0.809939 0.432535
vt 0.898317 0.480412
vt 0.396037 0.528092
vt 0.282051 0.528183
vt 0.299915 0.483300
vt 0.397614 0.524550
vt 0.321290 0.447098
vt 0.399191 0.521008
vt 0.669960 0.559091
vt 0.563602 0.560644
vt 0.573288 0.509763
vt 0.671060 0.554678
vt 0.584203 0.481079
vt 0.671610 0.552472
vt 0.997972 0.046031
vt 0.879134 0.048278
vt 0.906209 0.005354
vt 0.794859 0.504454
vt 0.689815 0.524161
vt 0.689975 0.471370
vt 0.888626 0.278559
vt 0.772338 0.302750
vt 0.774461 0.248071
vt 0.794974 0.326830
vt 0.562108 0.499382
vt 0.457188 0.472942
vt 0.482506 0.427681
vt 0.447098 0.501969
vt 0.314548 0.739279
vt 0.359922 0.660689
vt 0.405296 0.739279
vt 0.359922 0.817870
vt 0.269173 0.817870
vt 0.223799 0.739279
vt 0.269173 0.660689
vt 0.151796 0.845153
vt 0.162638 0.983855
vt 0.000500 0.983113
vt 0.064577 0.845153
vt 0.520867 0.682390
vt 0.541339 0.821456
vt 0.379138 0.823361
vt 0.430430 0.675252
vt 0.516566 0.835445
vt 0.593822 0.988623
vt 0.429787 0.995013
vt 0.427705 0.835445
vt 0.296614 0.979162
vt 0.338845 0.835445
vt 0.654787 0.702787
vt 0.690843 0.835108
vt 0.544185 0.838615
vt 0.561329 0.699523
vt 0.239015 0.845153
vt 0.297947 0.995502
vt 0.166784 0.162700
vt 0.244120 0.331311
vt 0.058403 0.292163
vt 0.366868 0.183729
vt 0.285359 0.003211
vt 0.114675 0.000500
vt 0.000500 0.125868
vt 0.896234 0.430500
vt 0.893697 0.386530
vt 0.937667 0.383992
vt 0.940205 0.427962
vt 0.039335 0.534043
vt 0.039335 0.490787
vt 0.097232 0.490787
vt 0.097232 0.534043
vt 0.155130 0.490787
vt 0.155130 0.534043
vt 0.213028 0.510536
vt 0.213028 0.553792
vt 0.270926 0.510536
vt 0.270926 0.553792
vt 0.039335 0.485827
vt 0.039335 0.442244
vt 0.097670 0.442244
vt 0.097670 0.485827
vt 0.156005 0.442244
vt 0.156005 0.485827
vt 0.214341 0.447688
vt 0.214341 0.491271
vt 0.272676 0.447688
vt 0.272676 0.491271
vt 0.039335 0.375098
vt 0.043856 0.332079
vt 0.101437 0.338131
vt 0.096915 0.381150
vt 0.159017 0.344183
vt 0.154496 0.387202
vt 0.218662 0.330594
vt 0.214141 0.373613
vt 0.276243 0.336646
vt 0.271721 0.379665
vt 0.039335 0.432402
vt 0.040856 0.388846
vt 0.099155 0.390882
vt 0.097635 0.434438
vt 0.157455 0.392918
vt 0.155934 0.436474
vt 0.215945 0.389513
vt 0.214424 0.433069
vt 0.274245 0.391549
vt 0.272724 0.435105
vt 0.932531 0.839092
vt 0.944155 0.796610
vt 0.986637 0.808234
vt 0.975013 0.850716
vn -0.0160 0.9995 -0.0276
vn -0.0319 0.9995 0.0000
vn -0.0160 0.9995 0.0276
vn 0.0160 0.9995 0.0276
vn 0.0319 0.9995 0.0000
vn 0.0160 0.9995 -0.0276
vn -0.4120 0.3571 -0.8383
vn -0.8997 0.4360 -0.0185
vn -0.4375 0.4402 0.7841
vn 0.4791 0.4006 0.7810
vn 0.9425 0.3301 0.0519
vn 0.5277 0.3185 -0.7875
vn 0.2854 -0.7086 0.6453
vn 0.6770 -0.7359 -0.0065
vn 0.3189 -0.7255 -0.6099
vn -0.3409 -0.7155 -0.6098
vn -0.7260 -0.6866 -0.0400
vn -0.4558 -0.6825 0.5713
vn -0.4371 0.4397 0.7847
vn 0.4776 0.3992 0.7827
vn 0.9465 0.3200 0.0409
vn 0.5249 0.3207 -0.7884
vn 0.3183 -0.7252 -0.6106
vn -0.3389 -0.7149 -0.6116
vn -0.7158 -0.6951 -0.0667
vn -0.4142 -0.6962 0.5863
vn -0.4410 0.4027 -0.8021
vn -0.9035 0.4233 -0.0670
vn -0.4310 0.4546 0.7795
vn 0.4690 0.4206 0.7766
vn 0.9466 0.3221 -0.0111
vn 0.5638 0.3684 -0.7392
vn 0.4082 -0.6347 0.6562
vn 0.7613 -0.6395 0.1067
vn 0.3471 -0.6658 -0.6605
vn -0.3734 -0.6517 -0.6602
vn -0.8039 -0.5939 0.0320
vn -0.5357 -0.6164 0.5771
vn -0.4296 0.4535 0.7809
vn 0.4646 0.4176 0.7809
vn 0.3453 -0.6650 -0.6622
vn -0.3675 -0.6500 -0.6652
vn -0.0160 0.9995 -0.0277
vn -0.0160 0.9995 0.0277
vn 0.0160 0.9995 0.0277
vn 0.0160 0.9995 -0.0277
vn -0.4364 0.3729 -0.8188
vn -0.9192 0.3842 -0.0861
vn -0.4337 0.4003 0.8072
vn 0.4677 0.3775 0.7992
vn 0.9441 0.3294 -0.0155
vn 0.6037 0.3504 -0.7161
vn 0.4334 -0.4017 0.8067
vn 0.9064 -0.4117 0.0945
vn 0.4248 -0.4279 -0.7978
vn -0.4590 -0.4067 -0.7899
vn -0.9326 -0.3604 0.0187
vn -0.6100 -0.3792 0.6958
vn -0.4378 0.4405 0.7837
vn 0.4801 0.4016 0.7799
vn 0.3194 -0.7256 -0.6095
vn -0.3423 -0.7159 -0.6085
vn 0.0000 -1.0000 0.0000
vn -0.2639 0.0000 -0.9645
vn -0.9645 0.0000 0.2639
vn -0.9506 0.1691 0.2601
vn 0.2639 -0.0000 0.9645
vn 0.9645 -0.0000 -0.2639
vn 0.9506 -0.1691 -0.2601
vn 0.0000 1.0000 0.0000
usemtl Dark_Leaves
s 1
f 1/1/1 2/2/1 3/3/1
f 1/1/2 3/3/2 4/4/2
f 1/1/3 4/4/3 5/5/3
f 1/1/4 5/5/4 6/6/4
f 1/1/5 6/6/5 7/7/5
f 1/1/6 7/7/6 2/2/6
f 2/8/7 8/9/7 9/10/7 3/11/7
f 3/12/8 9/13/8 10/14/8 4/15/8
f 4/16/9 10/17/9 11/18/9 5/19/9
f 5/19/10 11/18/10 12/20/10 6/21/10
f 6/22/11 12/23/11 13/24/11 7/25/11
f 7/26/12 13/27/12 8/9/12 2/8/12
f 14/28/13 9/29/13 8/30/13
f 14/28/14 10/31/14 9/29/14
f 14/28/15 11/32/15 10/31/15
f 14/28/16 12/33/16 11/32/16
f 14/28/17 13/34/17 12/33/17
f 14/28/18 8/30/18 13/34/18
f 15/35/1 16/36/1 17/37/1
f 15/35/2 17/37/2 18/38/2
f 15/35/3 18/38/3 19/39/3
f 15/35/4 19/39/4 20/40/4
f 15/35/5 20/40/5 21/41/5
f 15/35/6 21/41/6 16/36/6
f 16/42/7 22/43/7 23/44/7 17/45/7
f 17/46/8 23/47/8 24/48/8 18/49/8
f 18/50/19 24/51/19 25/52/19 19/53/19
f 19/53/20 25/52/20 26/54/20 20/55/20
f 20/56/21 26/57/21 27/58/21 21/59/21
f 21/60/22 27/61/22 22/43/22 16/42/22
f 28/62/13 23/63/13 22/64/13
f 28/62/14 24/65/14 23/63/14
f 28/62/23 25/66/23 24/65/23
f 28/62/24 26/67/24 25/66/24
f 28/62/25 27/68/25 26/67/25
f 28/62/26 22/64/26 27/68/26
f 29/69/1 30/70/1 31/71/1
f 29/69/2 31/71/2 32/72/2
f 29/69/3 32/72/3 33/73/3
f 29/69/4 33/73/4 34/74/4
f 29/69/5 34/74/5 35/75/5
f 29/69/6 35/75/6 30/70/6
f 30/76/27 36/77/27 37/78/27 31/79/27
f 31/80/28 37/81/28 38/82/28 32/83/28
f 32/84/29 38/85/29 39/86/29 33/87/29
f 33/87/30 39/86/30 40/88/30 34/89/30
f 34/90/31 40/91/31 41/92/31 35/93/31
f 35/93/32 41/92/32 36/94/32 30/95/32
f 42/96/33 37/97/33 36/98/33
f 42/96/34 38/99/34 37/97/34
f 42/96/35 39/100/35 38/99/35
f 42/96/36 40/101/36 39/100/36
f 42/96/37 41/102/37 40/101/37
f 42/96/38 36/98/38 41/102/38
f 43/103/1 44/104/1 45/105/1
f 43/103/2 45/105/2 46/106/2
f 43/103/3 46/106/3 47/107/3
f 43/103/4 47/107/4 48/108/4
f 43/103/5 48/108/5 49/109/5
f 43/103/6 49/109/6 44/104/6
f 44/110/27 50/111/27 51/112/27 45/113/27
f 45/114/28 51/115/28 52/116/28 46/117/28
f 46/118/39 52/119/39 53/120/39 47/121/39
f 47/121/40 53/120/40 54/122/40 48/123/40
f 48/124/31 54/125/31 55/126/31 49/127/31
f 49/127/32 55/126/32 50/128/32 44/129/32
f 56/130/33 51/131/33 50/132/33
f 56/130/34 52/133/34 51/131/34
f 56/130/41 53/134/41 52/133/41
f 56/130/42 54/135/42 53/134/42
f 56/130/37 55/136/37 54/135/37
f 56/130/38 50/132/38 55/136/38
f 57/137/43 58/138/43 59/139/43
f 57/137/2 59/139/2 60/140/2
f 57/137/44 60/140/44 61/141/44
f 57/137/45 61/141/45 62/142/45
f 57/137/5 62/142/5 63/143/5
f 57/137/46 63/143/46 58/138/46
f 58/144/47 64/145/47 65/146/47 59/147/47
f 59/148/48 65/149/48 66/150/48 60/151/48
f 60/152/49 66/153/49 67/154/49 61/155/49
f 61/155/50 67/154/50 68/156/50 62/157/50
f 62/158/51 68/159/51 69/160/51 63/161/51
f 63/161/52 69/160/52 64/162/52 58/163/52
f 70/164/53 65/165/53 64/166/53
f 70/167/54 66/168/54 65/169/54
f 70/170/55 67/171/55 66/172/55
f 70/170/56 68/173/56 67/171/56
f 70/174/57 69/175/57 68/176/57
f 70/174/58 64/177/58 69/175/58
f 71/178/1 72/179/1 73/180/1
f 71/178/2 73/180/2 74/181/2
f 71/178/3 74/181/3 75/182/3
f 71/178/4 75/182/4 76/183/4
f 71/178/5 76/183/5 77/184/5
f 71/178/6 77/184/6 72/179/6
f 72/185/7 78/186/7 79/187/7 73/188/7
f 73/189/8 79/190/8 80/191/8 74/192/8
f 74/193/59 80/194/59 81/195/59 75/196/59
f 75/196/60 81/195/60 82/197/60 76/198/60
f 76/199/11 82/200/11 83/201/11 77/202/11
f 77/203/12 83/204/12 78/186/12 72/185/12
f 84/205/13 79/206/13 78/207/13
f 84/205/14 80/208/14 79/206/14
f 84/205/61 81/209/61 80/208/61
f 84/205/62 82/210/62 81/209/62
f 84/205/17 83/211/17 82/210/17
f 84/205/18 78/207/18 83/211/18
usemtl Wood.002
f 85/212/63 87/213/63 88/214/63 86/215/63
f 85/216/64 86/217/64 90/218/64 89/219/64
f 89/219/64 90/218/64 94/220/64 93/221/64
f 93/221/64 94/220/64 98/222/64 97/223/64
f 97/223/64 98/222/64 102/224/64 101/225/64
f 86/226/65 88/227/65 91/228/65 90/229/65
f 90/229/65 91/228/65 95/230/66 94/231/66
f 94/231/66 95/230/66 99/232/66 98/233/66
f 98/233/66 99/232/66 103/234/65 102/235/65
f 88/236/67 87/237/67 92/238/67 91/239/67
f 91/239/67 92/238/67 96/240/67 95/241/67
f 95/241/67 96/240/67 100/242/67 99/243/67
f 99/243/67 100/242/67 104/244/67 103/245/67
f 87/246/68 85/247/68 89/248/68 92/249/68
f 92/249/68 89/248/68 93/250/69 96/251/69
f 96/251/69 93/250/69 97/252/69 100/253/69
f 100/253/69 97/252/69 101/254/68 104/255/68
f 104/256/70 101/257/70 102/258/70 103/259/70
