# Blender v3.0.1 OBJ File: ''
# www.blender.org
mtllib tree1.mtl
o Tree_01_Mesh
v -0.112258 24.278099 -0.060807
v 15.042453 -2.945792 -0.060806
v -0.112258 -2.945793 -15.215517
v -15.266969 -2.945792 -0.060806
v -0.112258 -2.945791 15.093904
v -0.112258 -16.020916 -0.060806
v 10.603740 13.799093 -0.060807
v -0.112258 14.958704 -10.776805
v -10.828258 13.799093 -0.060807
v -0.112258 13.799093 10.655191
v 10.603740 -13.661791 -0.060806
v -0.112258 -11.582204 -10.776803
v -10.828258 -13.661791 -0.060806
v -0.112258 -13.661791 10.655193
v 10.603740 -2.945793 -10.776805
v -10.828258 -2.945793 -10.776805
v -10.828258 -2.945792 10.655192
v 10.603740 -2.945792 10.655192
v 1.753405 -35.347034 2.305390
v 5.707150 -35.347034 3.229416
v 2.790435 -35.347034 -1.217514
v 6.744181 -35.347034 -0.293489
v -1.204272 1.080712 -5.318940
v 2.649814 1.000985 4.767121
v 2.353385 2.034017 -1.775091
v 3.707261 1.990575 2.077689
v 1.753405 -32.351215 2.305390
v 5.707150 -32.351215 3.229416
v 6.744181 -32.351215 -0.293489
v 2.790435 -32.351215 -1.217514
v 1.753405 -29.355398 2.305390
v 5.707150 -29.355398 3.229416
v 6.744181 -29.355398 -0.293489
v 2.790435 -29.355398 -1.217514
v -0.051694 -26.359581 1.883522
v 3.902050 -26.359581 2.807547
v 4.939080 -26.359581 -0.715357
v 0.985335 -26.359581 -1.639382
v -0.051694 -23.363766 1.883521
v 3.902050 -23.363766 2.807547
v 4.939080 -23.363766 -0.715357
v 0.985335 -23.363766 -1.639382
v -0.051694 -20.367947 1.883521
v 3.902050 -20.367947 2.807547
v 3.378519 -16.411045 -1.080075
v 0.985335 -16.342087 -1.639383
v -2.276352 -13.914546 -0.734163
v 4.226320 -14.237496 2.585435
v 5.271855 -14.237496 -0.821032
v 1.470437 -13.914546 -4.140629
v -1.751818 -10.013444 -0.276112
v 4.750857 -10.336394 3.043486
v 1.989085 -7.016915 3.820473
v 1.994972 -10.013444 -3.682579
v -0.651215 -6.422664 -0.341804
v 3.244922 -6.736344 2.891678
v 3.524981 -2.602065 4.207245
v 3.486058 -5.839995 -3.291044
v -0.166778 -3.176082 0.273083
v 6.411011 -3.247248 3.560376
v 6.885690 -1.634910 0.672913
v 3.009155 -1.563743 -2.614377
v 1.470437 -13.914546 -4.140629
vt 0.534765 0.855325
vt 0.427912 0.641619
vt 0.641619 0.641619
vt 0.427912 0.427912
vt 0.534765 0.427912
vt 0.641619 0.427912
vt 0.748472 0.855325
vt 0.855325 0.641619
vt 0.748472 0.427912
vt 0.855325 0.427912
vt 0.107353 0.855325
vt 0.000500 0.641619
vt 0.214206 0.641619
vt 0.000500 0.427912
vt 0.107353 0.427912
vt 0.214206 0.427912
vt 0.321059 0.855325
vt 0.321059 0.427912
vt 0.534765 0.000500
vt 0.641619 0.214206
vt 0.427912 0.214206
vt 0.748472 0.000500
vt 0.855325 0.214206
vt 0.107353 0.000500
vt 0.214206 0.214206
vt 0.000500 0.214206
vt 0.321059 0.000500
vt 0.944177 0.097920
vt 0.944177 0.150903
vt 0.891194 0.150903
vt 0.891194 0.097920
vt 0.830886 0.097920
vt 0.886933 0.097920
vt 0.886933 0.153966
vt 0.830886 0.153966
vt 0.812330 0.738106
vt 0.999500 0.738106
vt 0.999500 0.756823
vt 0.812330 0.756823
vt 0.999500 0.775540
vt 0.812330 0.775540
vt 0.999500 0.794257
vt 0.812330 0.794257
vt 0.999500 0.812974
vt 0.812330 0.812974
vt 0.999500 0.831691
vt 0.812330 0.831691
vt 0.999500 0.850408
vt 0.812330 0.850408
vt 0.999500 0.869125
vt 0.812330 0.869125
vt 0.999500 0.887842
vt 0.812330 0.887842
vt 0.999500 0.906559
vt 0.812330 0.906559
vt 0.999500 0.925276
vt 0.812330 0.925276
vt 0.246369 0.858721
vt 0.411865 0.858721
vt 0.411865 0.875270
vt 0.246369 0.875270
vt 0.411865 0.891820
vt 0.246369 0.891820
vt 0.411865 0.908369
vt 0.246369 0.908369
vt 0.411865 0.924919
vt 0.246369 0.924919
vt 0.411865 0.941469
vt 0.246369 0.941469
vt 0.411865 0.958018
vt 0.246369 0.958018
vt 0.411865 0.974568
vt 0.246369 0.974568
vt 0.411865 0.991118
vt 0.246369 0.991118
vt 0.798413 0.070085
vt 0.978078 0.070085
vt 0.978078 0.088052
vt 0.798413 0.088052
vt 0.557184 0.816969
vt 0.721279 0.816969
vt 0.721279 0.833379
vt 0.557184 0.833379
vt 0.721279 0.849788
vt 0.557184 0.849788
vt 0.721279 0.866198
vt 0.557184 0.866198
vt 0.721279 0.882607
vt 0.557184 0.882607
vt 0.721279 0.899017
vt 0.557184 0.899017
vt 0.000500 0.895833
vt 0.233191 0.895833
vt 0.233191 0.919102
vt 0.000500 0.919102
vt 0.233191 0.942371
vt 0.000500 0.942371
vt 0.233191 0.965640
vt 0.000500 0.965640
vt 0.233191 0.988909
vt 0.000500 0.988909
vt 0.524711 0.900472
vt 0.686049 0.900472
vt 0.686049 0.916606
vt 0.524711 0.916606
vt 0.686049 0.932740
vt 0.524711 0.932740
vt 0.686049 0.948873
vt 0.524711 0.948873
vt 0.686049 0.965007
vt 0.524711 0.965007
vt 0.686049 0.981141
vt 0.524711 0.981141
vt 0.686049 0.997275
vt 0.524711 0.997275
vt 0.784496 0.000500
vt 0.979757 0.000500
vt 0.979757 0.020026
vt 0.784496 0.020026
vt 0.979757 0.039552
vt 0.784496 0.039552
vt 0.979757 0.059078
vt 0.784496 0.059078
vt 0.999500 0.812974
vt 0.812330 0.812974
vt 0.812330 0.775540
vt 0.999500 0.775540
vn 0.5937 0.6072 -0.5280
vn 0.8974 0.2379 -0.3717
vn 0.6692 0.4005 -0.6259
vn 0.3730 0.2233 -0.9006
vn -0.5937 0.6072 -0.5280
vn -0.3730 0.2233 -0.9006
vn -0.6692 0.4005 -0.6259
vn -0.8974 0.2379 -0.3717
vn -0.5730 0.5860 0.5730
vn -0.8974 0.2379 0.3717
vn -0.6442 0.4123 0.6442
vn -0.3717 0.2379 0.8974
vn 0.5730 0.5860 0.5730
vn 0.3717 0.2379 0.8974
vn 0.6442 0.4123 0.6442
vn 0.8974 0.2379 0.3717
vn 0.1993 -0.9053 -0.3750
vn 0.3457 -0.4289 -0.8346
vn 0.4951 -0.6143 -0.6143
vn 0.8629 -0.3574 -0.3574
vn -0.1993 -0.9053 -0.3750
vn -0.8629 -0.3574 -0.3574
vn -0.4951 -0.6143 -0.6143
vn -0.3457 -0.4289 -0.8346
vn -0.2102 -0.9548 0.2102
vn -0.3574 -0.3574 0.8629
vn -0.5774 -0.5774 0.5774
vn -0.8629 -0.3574 0.3574
vn 0.2102 -0.9548 0.2102
vn 0.8629 -0.3574 0.3574
vn 0.5774 -0.5774 0.5774
vn 0.3574 -0.3574 0.8629
vn 0.0000 -1.0000 -0.0000
vn -0.4081 0.8988 0.1604
vn -0.2276 0.0000 0.9738
vn -0.3003 0.0772 0.9507
vn -0.3071 0.0846 0.9479
vn -0.4158 0.0511 0.9080
vn -0.4206 0.0404 0.9063
vn -0.4158 0.0512 0.9080
vn -0.4910 -0.0259 0.8708
vn -0.4909 -0.0259 0.8708
vn -0.5281 0.0618 0.8469
vn -0.5290 0.0521 0.8470
vn -0.6810 -0.0158 0.7321
vn -0.6783 -0.0132 0.7347
vn -0.7827 -0.1276 0.6091
vn 0.9593 0.0000 0.2824
vn 0.9235 0.2706 0.2719
vn 0.9221 0.2757 0.2714
vn 0.9725 0.0794 0.2188
vn 0.9726 0.0797 0.2185
vn 0.9887 -0.1494 -0.0113
vn 0.9932 0.0592 0.1004
vn 0.9915 -0.0321 -0.1263
vn 0.9893 0.0355 -0.1416
vn -0.4359 0.0967 -0.8948
vn 0.8748 0.3421 -0.3430
vn -0.5981 0.0257 -0.8010
vn 0.7410 0.5071 0.4402
vn 0.2276 -0.0000 -0.9738
vn 0.8367 0.3858 -0.3887
vn 0.9640 0.1432 -0.2241
vn 0.9863 -0.1650 0.0023
vn 0.9863 -0.1651 0.0023
vn 0.9104 -0.4111 0.0461
vn 0.8986 -0.4386 0.0073
vn 0.8987 -0.4386 0.0074
vn 0.9213 -0.0087 -0.3887
vn 0.9274 -0.0693 -0.3676
vn 0.6920 0.5222 -0.4985
vn -0.9593 0.0000 -0.2824
vn -0.9221 -0.2757 -0.2714
vn -0.9235 -0.2706 -0.2719
vn -0.9204 -0.1035 -0.3770
vn -0.6629 -0.4166 -0.6220
vn -0.5539 -0.4945 -0.6698
vn -0.6201 0.2384 -0.7474
vn -0.6305 0.1924 -0.7520
vn -0.6331 0.1794 -0.7530
vn -0.4043 -0.0716 -0.9118
vn -0.1845 -0.2234 -0.9571
vn 0.2577 -0.4589 -0.8503
vn 0.4129 -0.5625 -0.7163
usemtl Light_Leaves
s 1
f 1/1/1 7/2/1 8/3/1
f 7/2/2 2/4/2 15/5/2
f 7/2/3 15/5/3 8/3/3
f 8/3/4 15/5/4 3/6/4
f 1/7/5 8/3/5 9/8/5
f 8/3/6 3/6/6 16/9/6
f 8/3/7 16/9/7 9/8/7
f 9/8/8 16/9/8 4/10/8
f 1/11/9 9/12/9 10/13/9
f 9/12/10 4/14/10 17/15/10
f 9/12/11 17/15/11 10/13/11
f 10/13/12 17/15/12 5/16/12
f 1/17/13 10/13/13 7/2/13
f 10/13/14 5/16/14 18/18/14
f 10/13/15 18/18/15 7/2/15
f 7/2/16 18/18/16 2/4/16
f 6/19/17 12/20/17 11/21/17
f 12/20/18 3/6/18 15/5/18
f 12/20/19 15/5/19 11/21/19
f 11/21/20 15/5/20 2/4/20
f 6/22/21 13/23/21 12/20/21
f 13/23/22 4/10/22 16/9/22
f 13/23/23 16/9/23 12/20/23
f 12/20/24 16/9/24 3/6/24
f 6/24/25 14/25/25 13/26/25
f 14/25/26 5/16/26 17/15/26
f 14/25/27 17/15/27 13/26/27
f 13/26/28 17/15/28 4/14/28
f 6/27/29 11/21/29 14/25/29
f 11/21/30 2/4/30 18/18/30
f 11/21/31 18/18/31 14/25/31
f 14/25/32 18/18/32 5/16/32
usemtl Wood
f 19/28/33 21/29/33 22/30/33 20/31/33
f 23/32/34 24/33/34 26/34/34 25/35/34
f 19/36/35 20/37/35 28/38/35 27/39/35
f 27/39/35 28/38/35 32/40/35 31/41/35
f 31/41/35 32/40/35 36/42/35 35/43/35
f 35/43/35 36/42/35 40/44/35 39/45/35
f 39/45/35 40/44/35 44/46/36 43/47/37
f 43/47/37 44/46/36 48/48/38 47/49/39
f 47/49/39 48/48/40 52/50/41 51/51/42
f 51/51/42 52/50/41 56/52/43 55/53/44
f 55/53/44 56/52/43 60/54/45 59/55/46
f 59/55/46 60/54/45 24/56/47 23/57/47
f 20/58/48 22/59/48 29/60/48 28/61/48
f 28/61/48 29/60/48 33/62/49 32/63/50
f 32/63/50 33/62/49 37/64/50 36/65/49
f 36/65/49 37/64/50 41/66/51 40/67/52
f 40/67/52 41/66/51 45/68/53 44/69/54
f 44/69/54 45/68/53 49/70/55 48/71/56
f 48/71/56 49/70/55 53/72/57 52/73/58
f 52/73/58 53/72/57 57/74/59 56/75/59
f 60/76/60 61/77/60 26/78/60 24/79/60
f 22/80/61 21/81/61 30/82/61 29/83/61
f 29/83/61 30/82/61 34/84/61 33/85/61
f 33/85/61 34/84/61 38/86/61 37/87/61
f 37/87/61 38/86/61 42/88/61 41/89/61
f 41/89/61 42/88/61 46/90/61 45/91/61
f 49/92/62 63/93/62 54/94/63 53/95/64
f 53/95/65 54/94/63 58/96/66 57/97/67
f 57/97/68 58/96/66 62/98/69 61/99/70
f 61/99/70 62/98/69 25/100/71 26/101/71
f 21/102/72 19/103/72 27/104/72 30/105/72
f 30/105/72 27/104/72 31/106/73 34/107/74
f 34/107/74 31/106/73 35/108/74 38/109/73
f 38/109/73 35/108/74 39/110/72 42/111/72
f 42/111/72 39/110/72 43/112/75 46/113/76
f 46/113/76 43/112/75 47/114/77 50/115/77
f 54/116/78 51/117/78 55/118/79 58/119/80
f 58/119/80 55/118/79 59/120/81 62/121/82
f 62/121/82 59/120/81 23/122/83 25/123/83
f 50/124/84 49/125/84 45/126/84 46/127/84
